<svg width="416" height="416" viewBox="0 0 416 416" fill="none" xmlns="http://www.w3.org/2000/svg">
<g clip-path="url(#clip0_62762_2103)">
<path d="M214.655 285.737C212.45 285.704 210.224 285.691 207.999 285.691C201.442 285.691 194.986 285.813 188.63 286.057V319.338C234.519 319.82 271.156 329.671 271.156 341.739C271.156 353.807 234.519 363.65 188.63 364.137C187.457 364.137 186.278 364.137 185.094 364.137C177.556 364.137 170.251 363.883 163.287 363.409C126.313 360.913 99.0234 352.139 99.0234 341.718C99.0234 331.298 126.313 322.537 163.287 320.02V287.651C95.5997 293.753 46.0625 313.368 46.0625 336.622C46.0625 360.297 97.4052 380.186 166.973 385.889C180.068 386.967 193.826 387.553 207.999 387.553C210.228 387.553 212.454 387.553 214.655 387.507C300.991 386.409 369.922 364.049 369.922 336.635C369.922 309.22 300.999 286.831 214.655 285.737Z" fill="url(#paint0_linear_62762_2103)"/>
<path d="M163.291 320.036V363.425C126.317 360.929 99.0273 352.155 99.0273 341.735C99.0273 331.314 126.317 322.553 163.291 320.036Z" fill="url(#paint1_linear_62762_2103)"/>
<path d="M271.159 341.736C271.159 353.8 234.522 363.646 188.633 364.133V319.334C234.522 319.817 271.159 329.667 271.159 341.736Z" fill="url(#paint2_linear_62762_2103)"/>
<path d="M188.636 218.009V364.133C187.463 364.133 186.284 364.133 185.1 364.133C177.562 364.133 170.257 363.879 163.293 363.405V218.009C171.703 219.129 180.225 219.129 188.636 218.009Z" fill="url(#paint3_linear_62762_2103)"/>
<path d="M175.967 28.458C123.389 28.458 80.7656 71.0772 80.7656 123.656C80.7656 171.912 116.704 211.814 163.292 218.009C171.702 219.129 180.224 219.129 188.635 218.009C235.227 211.818 271.161 171.932 271.161 123.656C271.161 71.0772 228.541 28.458 175.967 28.458ZM175.967 197.733C161.316 197.733 146.994 193.388 134.812 185.248C122.63 177.109 113.136 165.539 107.529 152.004C101.922 138.468 100.455 123.573 103.313 109.204C106.172 94.8342 113.227 81.6349 123.587 71.275C133.947 60.9152 147.146 53.86 161.516 51.0017C175.885 48.1434 190.78 49.6104 204.315 55.2171C217.851 60.8239 229.421 70.3185 237.56 82.5004C245.7 94.6824 250.044 109.004 250.044 123.656C250.043 143.302 242.238 162.143 228.347 176.035C214.455 189.927 195.613 197.732 175.967 197.733Z" fill="url(#paint4_linear_62762_2103)"/>
<path d="M175.968 49.5781C161.317 49.5781 146.995 53.9227 134.813 62.0624C122.631 70.2021 113.136 81.7713 107.529 95.3071C101.923 108.843 100.456 123.737 103.314 138.107C106.172 152.477 113.227 165.676 123.587 176.036C133.947 186.396 147.146 193.451 161.516 196.309C175.886 199.167 190.78 197.7 204.316 192.094C217.852 186.487 229.421 176.992 237.561 164.81C245.7 152.628 250.045 138.306 250.045 123.655C250.045 104.009 242.24 85.167 228.348 71.2748C214.456 57.3827 195.614 49.5781 175.968 49.5781ZM225.513 132.1H126.418C124.653 132.1 122.96 131.399 121.712 130.151C120.463 128.902 119.762 127.209 119.762 125.444V121.887C119.762 120.122 120.463 118.429 121.712 117.181C122.96 115.932 124.653 115.231 126.418 115.231H225.513C227.279 115.231 228.972 115.932 230.22 117.181C231.468 118.429 232.169 120.122 232.169 121.887V125.461C232.165 127.223 231.462 128.912 230.214 130.156C228.966 131.401 227.276 132.1 225.513 132.1Z" fill="url(#paint5_linear_62762_2103)"/>
<path d="M232.173 121.887V125.461C232.173 127.226 231.472 128.919 230.224 130.167C228.976 131.416 227.283 132.117 225.517 132.117H126.418C124.652 132.117 122.959 131.416 121.711 130.167C120.463 128.919 119.762 127.226 119.762 125.461V121.887C119.762 120.122 120.463 118.429 121.711 117.181C122.959 115.933 124.652 115.231 126.418 115.231H225.513C226.387 115.231 227.253 115.403 228.062 115.737C228.87 116.071 229.604 116.561 230.222 117.179C230.841 117.798 231.331 118.532 231.666 119.339C232.001 120.147 232.173 121.013 232.173 121.887Z" fill="url(#paint6_linear_62762_2103)"/>
<path d="M271.647 237.952L279.51 237.12L267.071 314.222C266.927 315.117 266.469 315.931 265.78 316.52C265.09 317.108 264.213 317.432 263.307 317.433C263.102 317.431 262.897 317.414 262.695 317.383C262.2 317.303 261.725 317.127 261.298 316.863C260.871 316.6 260.5 316.255 260.207 315.848C259.913 315.441 259.702 314.981 259.587 314.492C259.471 314.004 259.453 313.498 259.533 313.003L271.647 237.952Z" fill="url(#paint7_linear_62762_2103)"/>
<path d="M290.44 169.644L289.779 173.737L282.902 168.425C282.972 167.921 283.142 167.436 283.402 166.999C283.662 166.562 284.006 166.181 284.416 165.878C284.825 165.576 285.29 165.358 285.785 165.239C286.279 165.119 286.792 165.099 287.295 165.18C287.797 165.261 288.278 165.442 288.709 165.711C289.14 165.981 289.514 166.334 289.807 166.75C290.1 167.166 290.307 167.636 290.416 168.133C290.524 168.63 290.533 169.144 290.44 169.644Z" fill="url(#paint8_linear_62762_2103)"/>
<path d="M347.851 230.022L279.519 237.144L271.648 237.951L282.88 168.417L289.757 173.729L350.493 220.675C351.322 221.312 351.942 222.183 352.271 223.176C352.6 224.169 352.624 225.237 352.339 226.244C352.055 227.25 351.475 228.148 350.675 228.822C349.875 229.495 348.891 229.914 347.851 230.022Z" fill="url(#paint9_linear_62762_2103)"/>
<path d="M170.697 351.049C170.366 351.049 170.049 350.917 169.815 350.683C169.581 350.449 169.449 350.132 169.449 349.801V229.852C169.449 229.521 169.581 229.203 169.815 228.969C170.049 228.735 170.366 228.604 170.697 228.604C171.028 228.604 171.346 228.735 171.58 228.969C171.814 229.203 171.945 229.521 171.945 229.852V349.801C171.945 350.132 171.814 350.449 171.58 350.683C171.346 350.917 171.028 351.049 170.697 351.049ZM180.544 185.09C158.23 185.09 140.712 178.617 128.469 165.854C118.202 155.146 113.693 141.938 111.717 132.741C109.583 122.794 109.861 115.46 109.874 115.152C109.888 114.821 110.032 114.509 110.276 114.285C110.52 114.061 110.843 113.942 111.174 113.956C111.505 113.97 111.817 114.115 112.041 114.358C112.265 114.602 112.384 114.925 112.37 115.256C112.37 115.547 111.401 144.459 130.291 164.144C142.051 176.383 158.962 182.594 180.544 182.594C180.875 182.594 181.192 182.725 181.426 182.96C181.66 183.194 181.792 183.511 181.792 183.842C181.792 184.173 181.66 184.49 181.426 184.724C181.192 184.958 180.875 185.09 180.544 185.09ZM313.335 349.817C313.16 349.818 312.986 349.781 312.825 349.709C312.664 349.637 312.521 349.532 312.404 349.401L295.605 330.594C295.385 330.347 295.271 330.022 295.29 329.691C295.309 329.361 295.458 329.051 295.705 328.83C295.952 328.61 296.277 328.496 296.608 328.515C296.939 328.534 297.248 328.683 297.469 328.93L314.263 347.733C314.424 347.913 314.529 348.135 314.566 348.372C314.603 348.61 314.571 348.854 314.473 349.074C314.375 349.293 314.215 349.48 314.013 349.611C313.812 349.743 313.576 349.813 313.335 349.813V349.817Z" fill="#B1B8BC"/>
<path d="M313.334 349.818C313.003 349.818 312.686 349.687 312.451 349.453C312.217 349.219 312.086 348.901 312.086 348.57V335.425C312.086 335.094 312.217 334.776 312.451 334.542C312.686 334.308 313.003 334.177 313.334 334.177C313.665 334.177 313.982 334.308 314.216 334.542C314.45 334.776 314.582 335.094 314.582 335.425V348.57C314.582 348.901 314.45 349.219 314.216 349.453C313.982 349.687 313.665 349.818 313.334 349.818Z" fill="#B1B8BC"/>
<path d="M314.611 348.725C314.354 348.729 314.102 348.654 313.89 348.51C313.677 348.366 313.514 348.159 313.423 347.919C313.332 347.679 313.317 347.416 313.381 347.167C313.445 346.918 313.584 346.695 313.779 346.528L323.455 338.208C323.579 338.098 323.724 338.014 323.88 337.961C324.037 337.907 324.203 337.885 324.368 337.896C324.533 337.908 324.695 337.952 324.843 338.026C324.991 338.1 325.123 338.203 325.23 338.328C325.338 338.454 325.42 338.6 325.471 338.757C325.522 338.915 325.541 339.081 325.528 339.246C325.514 339.411 325.467 339.571 325.391 339.718C325.314 339.865 325.209 339.995 325.082 340.101L315.406 348.421C315.185 348.612 314.903 348.72 314.611 348.725ZM111.133 316.135C110.957 316.136 110.783 316.099 110.623 316.027C110.462 315.955 110.319 315.85 110.201 315.719L93.4033 296.916C93.2941 296.794 93.21 296.651 93.1559 296.496C93.1017 296.341 93.0787 296.177 93.0879 296.014C93.0972 295.85 93.1386 295.689 93.2099 295.542C93.2811 295.394 93.3808 295.262 93.5032 295.152C93.6255 295.043 93.7682 294.959 93.9231 294.905C94.078 294.851 94.242 294.828 94.4058 294.837C94.5695 294.846 94.7299 294.888 94.8777 294.959C95.0254 295.03 95.1577 295.13 95.267 295.252L112.061 314.06C112.281 314.306 112.395 314.629 112.377 314.959C112.359 315.289 112.211 315.598 111.965 315.819C111.736 316.023 111.44 316.136 111.133 316.135Z" fill="#B1B8BC"/>
<path d="M111.135 316.134C110.804 316.134 110.486 316.003 110.252 315.769C110.018 315.535 109.887 315.217 109.887 314.886V293.616C109.887 293.285 110.018 292.968 110.252 292.734C110.486 292.5 110.804 292.368 111.135 292.368C111.466 292.368 111.783 292.5 112.017 292.734C112.251 292.968 112.383 293.285 112.383 293.616V314.886C112.383 315.05 112.35 315.212 112.288 315.364C112.225 315.515 112.133 315.653 112.017 315.769C111.901 315.885 111.764 315.977 111.612 316.039C111.461 316.102 111.299 316.134 111.135 316.134Z" fill="#B1B8BC"/>
<path d="M112.409 315.036C112.235 315.034 112.063 314.997 111.905 314.925C111.747 314.853 111.605 314.75 111.489 314.62C111.378 314.499 111.292 314.358 111.236 314.204C111.18 314.05 111.154 313.886 111.161 313.723C111.168 313.559 111.207 313.398 111.277 313.249C111.346 313.101 111.443 312.967 111.564 312.856L128.005 297.784C128.125 297.674 128.267 297.588 128.421 297.531C128.575 297.475 128.738 297.45 128.902 297.457C129.066 297.464 129.227 297.503 129.375 297.572C129.524 297.641 129.657 297.739 129.768 297.859C129.879 297.98 129.965 298.121 130.022 298.275C130.078 298.429 130.103 298.593 130.096 298.757C130.089 298.921 130.05 299.081 129.981 299.23C129.912 299.379 129.814 299.512 129.693 299.623L113.253 314.695C113.025 314.911 112.723 315.033 112.409 315.036ZM328.895 310.601C328.719 310.602 328.546 310.565 328.385 310.493C328.224 310.421 328.081 310.317 327.964 310.185L311.165 291.378C311.056 291.256 310.972 291.113 310.918 290.958C310.864 290.803 310.841 290.639 310.85 290.475C310.859 290.312 310.901 290.151 310.972 290.004C311.043 289.856 311.143 289.724 311.265 289.614C311.388 289.505 311.53 289.421 311.685 289.367C311.84 289.313 312.004 289.29 312.168 289.299C312.332 289.308 312.492 289.35 312.64 289.421C312.788 289.492 312.92 289.592 313.029 289.714L329.823 308.521C329.983 308.701 330.089 308.923 330.126 309.161C330.163 309.398 330.131 309.642 330.033 309.862C329.935 310.082 329.775 310.268 329.573 310.4C329.371 310.531 329.136 310.601 328.895 310.601Z" fill="#B1B8BC"/>
<path d="M328.896 310.602C328.565 310.602 328.248 310.471 328.014 310.237C327.78 310.002 327.648 309.685 327.648 309.354V288.084C327.648 287.753 327.78 287.436 328.014 287.201C328.248 286.967 328.565 286.836 328.896 286.836C329.227 286.836 329.545 286.967 329.779 287.201C330.013 287.436 330.144 287.753 330.144 288.084V309.354C330.144 309.685 330.013 310.002 329.779 310.237C329.545 310.471 329.227 310.602 328.896 310.602Z" fill="#B1B8BC"/>
<path d="M330.174 309.503C330.001 309.502 329.829 309.464 329.671 309.392C329.512 309.321 329.371 309.217 329.255 309.087C329.144 308.967 329.058 308.825 329.002 308.671C328.945 308.517 328.92 308.354 328.927 308.19C328.934 308.026 328.973 307.865 329.042 307.717C329.111 307.568 329.209 307.434 329.33 307.324L345.77 292.252C346.014 292.028 346.337 291.91 346.668 291.924C346.998 291.938 347.31 292.083 347.534 292.327C347.758 292.571 347.876 292.893 347.862 293.224C347.848 293.555 347.703 293.867 347.459 294.091L331.019 309.162C330.79 309.378 330.489 309.5 330.174 309.503Z" fill="#B1B8BC"/>
<path d="M37.0435 245.81C37.2599 245.81 37.4595 245.81 37.6883 245.81H64.2374C70.507 245.917 76.6507 247.587 82.1121 250.668C87.5735 253.749 92.1798 258.144 95.5138 263.454C98.8479 268.765 100.804 274.823 101.206 281.081C101.607 287.339 100.441 293.598 97.8127 299.291C116.183 293.92 138.518 289.877 163.291 287.643V218.008C148.702 216.045 134.766 210.728 122.578 202.474C110.389 194.22 100.279 183.253 93.0412 170.435H37.6883C27.7323 170.41 18.171 174.326 11.0924 181.327C4.01372 188.328 -0.00720254 197.846 -0.0923692 207.802C-0.177536 217.758 3.67998 227.343 10.6378 234.464C17.5957 241.585 27.0885 245.664 37.0435 245.81Z" fill="url(#paint10_linear_62762_2103)"/>
<path d="M68.1913 95.0515H85.1433C97.2863 56.4508 133.358 28.4582 175.969 28.4582C228.543 28.4582 271.162 71.0774 271.162 123.656C271.162 171.933 235.224 211.819 188.636 218.009V286.058C194.989 285.817 201.446 285.695 208.005 285.692C210.234 285.692 212.46 285.692 214.661 285.738C230.958 285.922 247.236 286.93 263.432 288.758L271.648 237.952L282.88 168.417C282.95 167.913 283.12 167.429 283.38 166.991C283.64 166.554 283.985 166.173 284.394 165.871C284.803 165.568 285.268 165.351 285.763 165.231C286.257 165.111 286.771 165.091 287.273 165.172C287.775 165.253 288.256 165.434 288.687 165.704C289.119 165.973 289.492 166.326 289.785 166.742C290.078 167.158 290.285 167.628 290.394 168.125C290.502 168.622 290.511 169.136 290.418 169.636L289.757 173.73L350.493 220.675C351.32 221.314 351.936 222.186 352.263 223.178C352.59 224.17 352.612 225.238 352.326 226.243C352.041 227.248 351.461 228.144 350.661 228.817C349.861 229.489 348.878 229.906 347.839 230.014L279.519 237.145L271.016 289.694C276.743 290.457 282.29 291.318 287.656 292.277C286.346 286.791 286.283 281.08 287.473 275.567C288.663 270.053 291.074 264.876 294.53 260.418C297.986 255.96 302.398 252.334 307.441 249.807C312.484 247.28 318.029 245.917 323.669 245.818H378.311C378.523 245.818 378.727 245.818 378.956 245.818C388.952 245.733 398.505 241.68 405.513 234.551C412.521 227.422 416.41 217.801 416.325 207.804C416.239 197.808 412.186 188.255 405.057 181.247C397.928 174.238 388.307 170.349 378.311 170.435H344.914C334.986 170.331 325.501 166.314 318.517 159.256C311.534 152.199 307.617 142.672 307.617 132.743C307.617 122.815 311.534 113.287 318.517 106.23C325.501 99.1728 334.986 95.1558 344.914 95.0515H345.696C355.624 94.9472 365.11 90.9302 372.094 83.873C379.077 76.8157 382.994 67.2882 382.994 57.3598C382.994 47.4314 379.077 37.9039 372.094 30.8466C365.11 23.7894 355.624 19.7724 345.696 19.6681H68.1913C63.2082 19.6157 58.2642 20.552 53.6454 22.4227C49.0265 24.2934 44.8244 27.0614 41.2822 30.5666C37.74 34.0718 34.928 38.2446 33.0088 42.8436C31.0897 47.4426 30.1016 52.3765 30.1016 57.3598C30.1016 62.3431 31.0897 67.277 33.0088 71.876C34.928 76.475 37.74 80.6478 41.2822 84.153C44.8244 87.6582 49.0265 90.4262 53.6454 92.2969C58.2642 94.1676 63.2082 95.1039 68.1913 95.0515Z" fill="url(#paint11_linear_62762_2103)"/>
<path d="M382.599 321.193C381.175 321.027 379.743 320.945 378.31 320.947H362.107C367.182 325.885 369.932 331.152 369.932 336.622C369.932 364.037 301.001 386.397 214.664 387.495C212.459 387.528 210.234 387.541 208.008 387.541C193.835 387.541 180.078 386.967 166.982 385.877C97.4104 380.186 46.0678 360.297 46.0678 336.622C46.0678 331.152 48.8092 325.885 53.8803 320.947H37.6896C36.2563 320.945 34.8242 321.027 33.4006 321.193C23.8328 322.281 15.0442 326.989 8.83867 334.353C2.63312 341.716 -0.518718 351.175 0.0300494 360.789C0.578817 370.403 4.78656 379.442 11.7897 386.051C18.7928 392.661 28.0601 396.339 37.6896 396.331H378.31C387.939 396.339 397.207 392.661 404.21 386.051C411.213 379.442 415.421 370.403 415.969 360.789C416.518 351.175 413.366 341.716 407.161 334.353C400.955 326.989 392.167 322.281 382.599 321.193Z" fill="url(#paint12_linear_62762_2103)"/>
</g>
<defs>
<linearGradient id="paint0_linear_62762_2103" x1="207.999" y1="287.763" x2="207.999" y2="415.4" gradientUnits="userSpaceOnUse">
<stop stop-color="#B1B8BC" stop-opacity="0.25"/>
<stop offset="1" stop-color="#B1B8BC" stop-opacity="0.5"/>
</linearGradient>
<linearGradient id="paint1_linear_62762_2103" x1="131.159" y1="274.567" x2="131.159" y2="366.437" gradientUnits="userSpaceOnUse">
<stop offset="0.14" stop-color="#B1B8BC" stop-opacity="0.5"/>
<stop offset="1" stop-color="#B1B8BC"/>
</linearGradient>
<linearGradient id="paint2_linear_62762_2103" x1="229.896" y1="274.535" x2="229.896" y2="366.409" gradientUnits="userSpaceOnUse">
<stop offset="0.14" stop-color="#B1B8BC" stop-opacity="0.5"/>
<stop offset="1" stop-color="#B1B8BC"/>
</linearGradient>
<linearGradient id="paint3_linear_62762_2103" x1="174.737" y1="329.043" x2="180.886" y2="138.923" gradientUnits="userSpaceOnUse">
<stop offset="0.14" stop-color="#B1B8BC" stop-opacity="0.5"/>
<stop offset="1" stop-color="#B1B8BC"/>
</linearGradient>
<linearGradient id="paint4_linear_62762_2103" x1="175.963" y1="84.3144" x2="175.963" y2="216.415" gradientUnits="userSpaceOnUse">
<stop stop-color="#B1B8BC" stop-opacity="0.25"/>
<stop offset="1" stop-color="#B1B8BC" stop-opacity="0.5"/>
</linearGradient>
<linearGradient id="paint5_linear_62762_2103" x1="175.968" y1="65.3528" x2="175.968" y2="202.753" gradientUnits="userSpaceOnUse">
<stop offset="0.14" stop-color="#B1B8BC" stop-opacity="0.5"/>
<stop offset="1" stop-color="#B1B8BC"/>
</linearGradient>
<linearGradient id="paint6_linear_62762_2103" x1="175.967" y1="101.225" x2="175.967" y2="202.047" gradientUnits="userSpaceOnUse">
<stop stop-color="#B1B8BC" stop-opacity="0.25"/>
<stop offset="1" stop-color="#B1B8BC" stop-opacity="0.5"/>
</linearGradient>
<linearGradient id="paint7_linear_62762_2103" x1="272.625" y1="253.465" x2="264.188" y2="312.108" gradientUnits="userSpaceOnUse">
<stop offset="0.14" stop-color="#B1B8BC" stop-opacity="0.5"/>
<stop offset="1" stop-color="#B1B8BC"/>
</linearGradient>
<linearGradient id="paint8_linear_62762_2103" x1="286.975" y1="166.919" x2="286.147" y2="172.677" gradientUnits="userSpaceOnUse">
<stop offset="0.14" stop-color="#B1B8BC" stop-opacity="0.5"/>
<stop offset="1" stop-color="#B1B8BC"/>
</linearGradient>
<linearGradient id="paint9_linear_62762_2103" x1="271.657" y1="203.19" x2="352.544" y2="203.19" gradientUnits="userSpaceOnUse">
<stop stop-color="#B1B8BC" stop-opacity="0.25"/>
<stop offset="1" stop-color="#B1B8BC" stop-opacity="0.5"/>
</linearGradient>
<linearGradient id="paint10_linear_62762_2103" x1="81.6428" y1="143.698" x2="81.6428" y2="472.651" gradientUnits="userSpaceOnUse">
<stop stop-color="#B1B8BC" stop-opacity="0.1"/>
<stop offset="1" stop-color="#B1B8BC" stop-opacity="0.25"/>
</linearGradient>
<linearGradient id="paint11_linear_62762_2103" x1="223.251" y1="143.699" x2="223.251" y2="472.651" gradientUnits="userSpaceOnUse">
<stop stop-color="#B1B8BC" stop-opacity="0.1"/>
<stop offset="1" stop-color="#B1B8BC" stop-opacity="0.25"/>
</linearGradient>
<linearGradient id="paint12_linear_62762_2103" x1="208" y1="143.698" x2="208" y2="472.65" gradientUnits="userSpaceOnUse">
<stop stop-color="#B1B8BC" stop-opacity="0.1"/>
<stop offset="1" stop-color="#B1B8BC" stop-opacity="0.25"/>
</linearGradient>
<clipPath id="clip0_62762_2103">
<rect width="416" height="416" fill="white"/>
</clipPath>
</defs>
</svg>
