<svg width="24" height="24" viewBox="0 0 24 24" fill="none" xmlns="http://www.w3.org/2000/svg">
<path d="M11.9999 1.93945C9.92798 1.94123 7.9414 2.7651 6.4763 4.2302C5.0112 5.6953 4.18733 7.68189 4.18555 9.75385C4.18555 17.3283 11.4431 21.7347 11.7503 21.9171L11.9999 22.0611L12.2495 21.9171C12.5567 21.7347 19.8143 17.3283 19.8143 9.75385C19.8126 7.68189 18.9887 5.6953 17.5236 4.2302C16.0585 2.7651 14.0719 1.94123 11.9999 1.93945ZM11.9999 11.5203C11.4322 11.5203 10.8773 11.3519 10.4052 11.0365C9.9332 10.7211 9.5653 10.2728 9.34804 9.74831C9.13079 9.22381 9.07395 8.64667 9.1847 8.08987C9.29546 7.53306 9.56883 7.02161 9.97027 6.62017C10.3717 6.21874 10.8832 5.94536 11.44 5.83461C11.9968 5.72385 12.5739 5.7807 13.0984 5.99795C13.6229 6.2152 14.0712 6.58311 14.3866 7.05514C14.702 7.52718 14.8703 8.08214 14.8703 8.64985C14.8698 9.41097 14.5673 10.1408 14.0291 10.679C13.4909 11.2172 12.7611 11.5197 11.9999 11.5203Z" fill="white"/>
</svg>
