<svg width="32" height="32" viewBox="0 0 32 32" fill="none" xmlns="http://www.w3.org/2000/svg">
<path d="M15.999 0.941406C11.199 0.941406 7.24609 4.89435 7.24609 9.69435C7.24609 14.212 14.399 23.1532 15.2461 24.0943C15.4343 24.2826 15.7167 24.4708 15.999 24.4708C16.2814 24.4708 16.5637 24.3767 16.752 24.0943C17.599 23.0591 24.752 14.1179 24.752 9.69435C24.752 4.89435 20.799 0.941406 15.999 0.941406ZM15.999 13.1767C14.0226 13.1767 12.4226 11.5767 12.4226 9.60023C12.4226 7.62376 14.0226 6.02376 15.999 6.02376C17.9755 6.02376 19.5755 7.62376 19.5755 9.60023C19.5755 11.5767 17.9755 13.1767 15.999 13.1767Z" fill="#33A1FD"/>
<path d="M29.2691 29.647C28.7985 30.4941 27.8574 31.0588 26.8221 31.0588H5.175C4.13971 31.0588 3.19853 30.4941 2.72794 29.647C2.25735 28.7058 2.25735 27.6705 2.72794 26.8235L6.11618 21.1764C6.68088 20.3294 7.62206 19.7646 8.56324 19.7646H9.69265C11.4809 22.3999 13.175 24.5646 13.8338 25.3176C14.3985 25.9764 15.1515 26.3529 15.9985 26.3529C16.8456 26.3529 17.5985 25.9764 18.1632 25.3176C18.8221 24.5646 20.5162 22.3999 22.3044 19.7646H23.4338C24.375 19.7646 25.3162 20.3294 25.8809 21.1764L29.2691 26.8235C29.7397 27.6705 29.7397 28.7058 29.2691 29.647Z" fill="#33A1FD"/>
</svg>
