<svg width="40" height="40" viewBox="0 0 40 40" fill="none" xmlns="http://www.w3.org/2000/svg">
<path d="M20 2C16.4399 2 12.9598 3.05568 9.99974 5.03355C7.03966 7.01141 4.73255 9.82263 3.37018 13.1117C2.0078 16.4008 1.65134 20.02 2.34587 23.5116C3.04041 27.0033 4.75474 30.2106 7.27209 32.7279C9.78943 35.2453 12.9967 36.9596 16.4884 37.6541C19.98 38.3487 23.5992 37.9922 26.8883 36.6298C30.1774 35.2674 32.9886 32.9603 34.9665 30.0003C36.9443 27.0402 38 23.5601 38 20C38 15.2261 36.1036 10.6477 32.7279 7.27208C29.3523 3.89642 24.7739 2 20 2ZM28.721 18.848L25.328 21.422C25.107 21.5935 24.9444 21.829 24.8622 22.0964C24.7801 22.3638 24.7825 22.65 24.869 22.916L26.174 27.092C26.2687 27.3541 26.2769 27.6395 26.1976 27.9066C26.1184 28.1737 25.9557 28.4085 25.7334 28.5764C25.5111 28.7444 25.2408 28.8368 24.9622 28.8402C24.6836 28.8435 24.4113 28.7576 24.185 28.595L20.774 26.012C20.5534 25.8504 20.287 25.7633 20.0135 25.7633C19.74 25.7633 19.4736 25.8504 19.253 26.012L15.842 28.595C15.6157 28.7576 15.3434 28.8435 15.0648 28.8402C14.7862 28.8368 14.5159 28.7444 14.2936 28.5764C14.0714 28.4085 13.9087 28.1737 13.8294 27.9066C13.7501 27.6395 13.7584 27.3541 13.853 27.092L15.149 22.934C15.2377 22.664 15.2412 22.3733 15.1591 22.1012C15.077 21.8291 14.9132 21.5889 14.69 21.413L11.27 18.83C11.0527 18.6619 10.8915 18.4319 10.8075 18.1703C10.7236 17.9087 10.721 17.6278 10.7999 17.3646C10.8788 17.1015 11.0357 16.8684 11.2498 16.6962C11.4638 16.524 11.7251 16.4207 11.999 16.4H16.256C16.5288 16.3979 16.7939 16.3098 17.0137 16.1482C17.2335 15.9866 17.3967 15.7597 17.48 15.5L18.785 11.315C18.8668 11.0532 19.0301 10.8243 19.2511 10.6618C19.472 10.4993 19.7392 10.4116 20.0135 10.4116C20.2878 10.4116 20.555 10.4993 20.776 10.6618C20.997 10.8243 21.1602 11.0532 21.242 11.315L22.547 15.5C22.6304 15.7597 22.7935 15.9866 23.0133 16.1482C23.2331 16.3098 23.4982 16.3979 23.771 16.4H27.992C28.2704 16.4166 28.537 16.5184 28.7556 16.6917C28.9742 16.865 29.1341 17.1014 29.2137 17.3687C29.2933 17.6361 29.2887 17.9214 29.2006 18.186C29.1125 18.4507 28.945 18.6818 28.721 18.848Z" fill="#F79824"/>
</svg>
