<svg width="120" height="120" viewBox="0 0 120 120" fill="none" xmlns="http://www.w3.org/2000/svg">
<g clip-path="url(#clip0_62706_166)">
<path d="M60 0C26.8614 0 0 26.8614 0 60C0 93.1386 26.8614 120 60 120C93.1386 120 120 93.1386 120 60C120 26.8614 93.135 0 60 0ZM60 94.1143C41.1568 94.1143 25.8857 78.8396 25.8857 60C25.8857 41.1604 41.1604 25.8857 60 25.8857C78.8432 25.8857 94.1143 41.1604 94.1143 60C94.1143 78.8396 78.8396 94.1143 60 94.1143Z" fill="#0070CC"/>
<path opacity="0.2" d="M4.28516 61.0713H21.428" stroke="#0070CC" stroke-width="2.57143" stroke-linecap="round"/>
<path opacity="0.2" d="M98.5723 61.0713H115.715" stroke="#0070CC" stroke-width="2.57143" stroke-linecap="round"/>
<path fill-rule="evenodd" clip-rule="evenodd" d="M39.9943 41.9985C46.5414 39.5053 53.4311 38.2558 60.3214 38.25V83.2414C60.2786 83.238 60.2357 83.2339 60.1929 83.2288C59.7484 83.2292 59.3096 83.1304 58.9082 82.9395C51.6189 79.7261 41.5037 73.9093 37.8429 60.4444C37.0714 59.25 37.8429 45.0193 37.8429 45.0193C37.8482 43.6579 38.7103 42.4476 39.9943 41.9985ZM80.6488 41.9985C74.1017 39.5053 67.2118 38.2558 60.3214 38.25V83.2414C60.3643 83.238 60.4074 83.2339 60.4502 83.2288C60.8946 83.2292 61.3335 83.1304 61.7346 82.9395C69.0242 79.7261 79.1394 73.9093 82.8002 60.4444C83.5716 59.25 82.8002 45.0193 82.8002 45.0193C82.7949 43.6579 81.9328 42.4476 80.6488 41.9985Z" fill="#0070CC"/>
<path d="M33.8917 27.1269L33.8225 27.1809C33.5144 27.4316 33.0796 27.4539 32.7472 27.2364L25.8607 23.4975C25.747 23.4431 25.6467 23.3644 25.5665 23.2672C25.4418 23.1069 25.3863 22.9035 25.4127 22.7023C25.4392 22.5011 25.5451 22.3187 25.7069 22.1962C25.9786 21.9669 26.3686 21.9427 26.6667 22.1368L32.579 25.5148L30.6256 18.9292C30.5313 18.6174 30.6374 18.2797 30.8926 18.0774C31.046 17.9495 31.2442 17.8884 31.4431 17.9079C31.642 17.9273 31.8245 18.0257 31.9501 18.181C32.0167 18.2715 32.0654 18.3739 32.0935 18.4827L34.1986 26.0837C34.3353 26.4611 34.211 26.8834 33.8917 27.1269Z" fill="white" stroke="white" stroke-width="0.5"/>
<path d="M44.443 20.7388L39.7951 22.9804C39.6102 23.0734 39.3955 23.0873 39.2 23.0192C39.0046 22.951 38.845 22.8066 38.758 22.6187L35.6238 16.121C35.5313 15.9359 35.5175 15.7212 35.5859 15.5258C35.654 15.3304 35.7987 15.1709 35.9864 15.0838L40.577 12.8691C40.9201 12.7077 41.3292 12.8505 41.4972 13.1904C41.5771 13.3549 41.5883 13.5445 41.5278 13.7172C41.4676 13.8899 41.341 14.0315 41.176 14.1105L37.2728 15.9927L38.2634 18.046L41.6588 16.4084C42.0061 16.2461 42.4195 16.3946 42.584 16.7409C42.7437 17.0819 42.5978 17.4877 42.2575 17.649L38.8615 19.2865L39.8845 21.4074L43.844 19.4982C44.1869 19.3363 44.5964 19.4793 44.7642 19.8194C44.8439 19.9838 44.8548 20.1733 44.7946 20.3459C44.7344 20.5184 44.6078 20.6598 44.443 20.7388Z" fill="white" stroke="white" stroke-width="0.5"/>
<path d="M53.6809 18.2238C53.3872 18.2968 53.0764 18.2137 52.8583 18.0039L50.1694 15.8402L48.2797 16.28L48.8132 18.5727C48.9047 18.985 48.6472 19.3942 48.2359 19.4899C47.8245 19.5856 47.4129 19.3321 47.313 18.9217L45.6613 11.8236C45.6114 11.6228 45.6448 11.4104 45.7541 11.2348C45.8634 11.0591 46.0393 10.9353 46.2414 10.8915L49.2907 10.1823C50.1804 9.92269 51.1365 10.0235 51.9525 10.4629C52.5384 10.8491 52.947 11.4522 53.088 12.1395L53.094 12.1643C53.4172 13.3573 52.8538 14.6125 51.7477 15.164L53.8618 16.8451C54.0472 16.9646 54.1817 17.1486 54.2394 17.3614C54.3232 17.7538 54.0733 18.1398 53.6809 18.2238Z" fill="white" stroke="white" stroke-width="0.5"/>
<path d="M58.1019 17.8493C57.8974 17.8648 57.6956 17.7973 57.5415 17.662C57.3877 17.5267 57.2947 17.335 57.2839 17.1303L56.8704 9.78004C56.8466 9.35541 57.1714 8.99186 57.5962 8.96803C58.0209 8.9442 58.3843 9.2691 58.4081 9.69375L58.8217 17.0441C58.8343 17.2466 58.7653 17.4457 58.6299 17.5971C58.4947 17.7484 58.3046 17.8392 58.1019 17.8493Z" fill="white" stroke="white" stroke-width="0.5"/>
<path d="M68.7454 10.922L64.4241 10.4748L64.1781 12.853L67.9388 13.2426C68.3239 13.2823 68.604 13.6269 68.5643 14.0122C68.5245 14.3974 68.1799 14.6775 67.7946 14.6377L64.0333 14.2482L63.7382 17.1001C63.6902 17.5194 63.3135 17.8218 62.8937 17.7782C62.4739 17.7346 62.1675 17.3612 62.2065 16.941L62.9569 9.69349C62.9749 9.48743 63.0758 9.29746 63.2363 9.16705C63.3968 9.03661 63.6034 8.97689 63.8087 9.00154L68.8903 9.52763C69.1403 9.55251 69.3578 9.70919 69.4605 9.93835C69.5633 10.1675 69.5357 10.4341 69.3878 10.6373C69.2402 10.8405 68.9953 10.9491 68.7454 10.922Z" fill="white" stroke="white" stroke-width="0.5"/>
<path d="M74.8034 11.6486L72.8731 18.7505C72.7591 19.158 72.3378 19.3973 71.9296 19.2863C71.5212 19.1754 71.279 18.7558 71.387 18.3467L73.318 11.2448C73.4324 10.8383 73.8533 10.5999 74.2608 10.7107C74.6682 10.8215 74.9105 11.2401 74.8034 11.6486Z" fill="white" stroke="white" stroke-width="0.5"/>
<path d="M82.7761 17.9398C83.122 18.1044 83.2702 18.5172 83.1084 18.8644C82.9473 19.2047 82.5415 19.3506 82.2005 19.1908L78.7767 17.6171L77.7935 19.7552L81.7861 21.5908C82.1287 21.7524 82.279 22.1587 82.1238 22.5043C82.048 22.6706 81.9089 22.7998 81.7375 22.863C81.566 22.9265 81.3764 22.919 81.2105 22.842L76.5245 20.6873C76.3351 20.604 76.1877 20.4476 76.1159 20.2536C76.0441 20.0597 76.054 19.8449 76.1433 19.6584L79.1557 13.1066C79.2393 12.9172 79.396 12.7698 79.5899 12.6979C79.784 12.6261 79.999 12.636 80.1856 12.7254L84.8146 14.8538C85.1577 15.0149 85.3083 15.4214 85.153 15.7672C85.0771 15.9335 84.938 16.0626 84.7666 16.126C84.5952 16.1894 84.4055 16.1818 84.2397 16.1049L80.3039 14.2955L79.3522 16.3661L82.7761 17.9398Z" fill="white" stroke="white" stroke-width="0.5"/>
<path d="M93.0005 25.8142L92.9849 25.8343C92.2437 26.792 91.1394 27.4008 89.9341 27.5163C88.7287 27.632 87.5289 27.2443 86.6191 26.4453L84.6492 24.9189C84.4837 24.7946 84.3759 24.6086 84.3498 24.4036C84.3239 24.1985 84.3819 23.9915 84.5112 23.8299L88.9284 18.1291C89.0525 17.9635 89.2387 17.8553 89.444 17.8293C89.6495 17.8033 89.8565 17.8617 90.0181 17.991L91.9874 19.5175C92.9896 20.1928 93.6674 21.2531 93.8592 22.4463C94.0512 23.6392 93.7404 24.8587 93.0005 25.8142Z" fill="white" stroke="white" stroke-width="0.5"/>
<path d="M91.1275 20.6254L89.7623 19.5664L86.1113 24.278L87.4772 25.3361C88.0823 25.8721 88.8863 26.1266 89.6897 26.0368C90.4933 25.9468 91.221 25.5206 91.6926 24.8641L91.7076 24.8439C92.2283 24.2221 92.4621 23.4095 92.3518 22.6061C92.2412 21.8028 91.7965 21.0835 91.1275 20.6254Z" fill="#0070CC" stroke="white" stroke-width="0.5"/>
<path d="M51.5835 12.5788C51.3703 11.6647 50.595 11.318 49.4859 11.5762L47.3027 12.0842L47.9692 14.9496L50.1643 14.4393C51.2375 14.1894 51.7905 13.4697 51.5887 12.6037L51.5835 12.5788Z" fill="#0070CC" stroke="white" stroke-width="0.5"/>
<path d="M34.7568 95.9928L31.0636 101.532L34.3651 103.733C34.6827 103.95 34.7667 104.382 34.5535 104.701C34.3403 105.021 33.9095 105.11 33.5875 104.9L29.6513 102.275C29.4773 102.163 29.3562 101.986 29.3157 101.783C29.275 101.58 29.3185 101.369 29.4359 101.199L33.4765 95.1389C33.7139 94.7894 34.1885 94.6968 34.54 94.9312C34.8914 95.1657 34.9883 95.6394 34.7568 95.9928Z" fill="white" stroke="white" stroke-width="0.5"/>
<path d="M42.3249 100.283L39.2081 106.958C39.026 107.339 38.57 107.503 38.1866 107.324C37.8033 107.145 37.6361 106.69 37.8123 106.305L40.9282 99.6311C41.1101 99.249 41.5661 99.0849 41.9499 99.2638C42.3335 99.4427 42.5009 99.8977 42.3249 100.283Z" fill="white" stroke="white" stroke-width="0.5"/>
<path d="M52.1971 104.311C52.1133 104.586 51.8836 104.792 51.6007 104.844C51.3181 104.897 51.0294 104.788 50.8522 104.561C50.4299 103.917 49.7883 103.448 49.0464 103.24C48.2731 103.041 47.4519 103.163 46.7703 103.579C46.0886 103.996 45.6044 104.67 45.4284 105.449L45.4218 105.473C45.1676 106.233 45.2328 107.063 45.6018 107.773C45.9708 108.484 46.6124 109.015 47.3797 109.244C48.1586 109.474 48.9967 109.395 49.7182 109.021C49.8719 108.947 50.0476 108.931 50.2121 108.976C50.5921 109.085 50.8175 109.475 50.7217 109.859C50.6639 110.062 50.5222 110.231 50.3321 110.324C49.2851 110.858 48.0704 110.96 46.949 110.607C45.7923 110.3 44.81 109.537 44.2271 108.492C43.6441 107.447 43.5106 106.21 43.8569 105.065L43.8637 105.041C44.1614 103.868 44.9244 102.868 45.9764 102.271C47.0285 101.675 48.2786 101.533 49.4375 101.879C50.4961 102.136 51.4293 102.759 52.0717 103.638C52.2159 103.831 52.2622 104.079 52.1971 104.311Z" fill="white" stroke="white" stroke-width="0.5"/>
<path d="M60.7191 104.922L56.394 104.67L56.2618 106.946L60.0249 107.164C60.4069 107.192 60.6954 107.522 60.6709 107.904C60.645 108.28 60.3201 108.564 59.9445 108.539L56.1816 108.321L56.0449 110.671L60.4331 110.926C60.8113 110.951 61.0993 111.275 61.08 111.654C61.0699 111.836 60.9876 112.007 60.8509 112.128C60.7144 112.25 60.5351 112.312 60.3527 112.301L55.203 112.001C54.9962 111.992 54.8021 111.9 54.6645 111.746C54.5269 111.592 54.4577 111.388 54.4727 111.182L54.8914 103.981C54.9002 103.775 54.9926 103.58 55.1471 103.443C55.3016 103.305 55.5054 103.236 55.7117 103.251L60.7993 103.547C61.1777 103.572 61.4659 103.896 61.4471 104.275C61.4368 104.457 61.3543 104.628 61.2176 104.75C61.0809 104.871 60.9015 104.933 60.7191 104.922Z" fill="white" stroke="white" stroke-width="0.5"/>
<path d="M72.0041 111.129L71.9426 111.138C71.6173 111.181 71.2922 111.057 71.0788 110.808L65.7113 105.757L66.5865 111.244C66.6482 111.655 66.3671 112.039 65.9567 112.105C65.5463 112.17 65.1598 111.893 65.0906 111.483L63.9341 104.228C63.9006 104.025 63.9499 103.816 64.0708 103.649C64.1918 103.482 64.3744 103.371 64.5782 103.339L64.7387 103.314C65.0614 103.269 65.3854 103.388 65.601 103.633L70.8191 108.542L69.9718 103.228C69.9101 102.817 70.191 102.432 70.6013 102.367C71.0119 102.301 71.3985 102.579 71.4675 102.989L72.6255 110.257C72.6615 110.455 72.6158 110.659 72.4988 110.824C72.3818 110.988 72.2033 111.098 72.0041 111.129Z" fill="white" stroke="white" stroke-width="0.5"/>
<path d="M80.2007 108.601C79.095 109.038 77.8768 109.103 76.7312 108.784C76.4265 108.708 76.2067 108.443 76.1878 108.13C76.1692 107.816 76.356 107.527 76.6494 107.416C76.7972 107.35 76.9629 107.337 77.1191 107.378C77.9709 107.668 78.8977 107.646 79.7347 107.317C80.621 106.967 81.015 106.327 80.7757 105.721L80.7667 105.698C80.537 105.115 80.0859 104.928 78.4333 105.177C76.5309 105.442 75.3495 105.315 74.7566 103.812L74.747 103.788C74.5048 103.084 74.5672 102.31 74.9186 101.652C75.27 100.995 75.8793 100.514 76.5999 100.323C77.5123 99.9419 78.5199 99.8502 79.4863 100.061C79.7336 100.102 79.9397 100.273 80.0259 100.508C80.0955 100.686 80.091 100.885 80.0133 101.06C79.9357 101.234 79.7913 101.371 79.6123 101.439C79.4812 101.492 79.3374 101.506 79.1981 101.481C78.495 101.31 77.7568 101.353 77.078 101.603C76.2382 101.934 75.9193 102.558 76.1302 103.095L76.1398 103.118C76.3875 103.747 76.871 103.88 78.5917 103.632C80.4823 103.372 81.6116 103.64 82.1454 104.992L82.1544 105.016C82.4195 105.749 82.3575 106.562 81.984 107.248C81.6105 107.933 80.9615 108.425 80.2007 108.601Z" fill="white" stroke="white" stroke-width="0.5"/>
<path d="M87.4015 104.989C87.2297 105.104 87.0184 105.145 86.8159 105.102C86.6134 105.059 86.4368 104.936 86.3267 104.761L82.3956 98.7085C82.2803 98.5367 82.2394 98.3254 82.2822 98.1229C82.3253 97.9204 82.4485 97.744 82.6238 97.6339L86.9001 94.8563C87.2198 94.6523 87.6441 94.7421 87.8539 95.0582C87.9537 95.2114 87.9887 95.3982 87.9505 95.5772C87.9126 95.7561 87.8048 95.9125 87.6514 96.012L84.0158 98.3732L85.2578 100.285L88.4204 98.2313C88.7447 98.0265 89.1732 98.1216 89.3804 98.4443C89.5819 98.7627 89.4884 99.184 89.1709 99.387L86.0084 101.441L87.2918 103.416L90.9797 101.021C91.2996 100.817 91.7237 100.907 91.9328 101.223C92.0329 101.377 92.0678 101.563 92.0297 101.742C91.9917 101.921 91.8839 102.078 91.7301 102.177L87.4015 104.989Z" fill="white" stroke="white" stroke-width="0.5"/>
<path d="M54.6582 59.5562C53.8212 58.7194 52.4646 58.7194 51.6276 59.5562C50.7908 60.3929 50.7908 61.7498 51.6276 62.5866L57.4285 68.3875L69.6582 56.158C70.495 55.3212 70.495 53.9644 69.6582 53.1276C68.8212 52.2908 67.4646 52.2908 66.6276 53.1276L57.4285 62.3267L54.6582 59.5562Z" fill="white"/>
</g>
<defs>
<clipPath id="clip0_62706_166">
<rect width="120" height="120" fill="white"/>
</clipPath>
</defs>
</svg>
