<svg width="24" height="25" viewBox="0 0 24 25" fill="none" xmlns="http://www.w3.org/2000/svg">
<path d="M21.1 16.6C20.5 17.2 20.2 17.9 20.2 18.7C20.2 20.4 18.9 21.7 17.2 21.7C16.4 21.7 15.6 22 15.1 22.6C13.9 23.8 12 23.8 10.9 22.6C10.3 22 9.6 21.7 8.8 21.7C7.1 21.7 5.8 20.4 5.8 18.7C5.8 17.9 5.5 17.1 4.9 16.6C3.7 15.4 3.7 13.5 4.9 12.4C5.5 11.8 5.8 11.1 5.8 10.3C5.8 8.6 7.1 7.3 8.8 7.3C9.6 7.3 10.4 7 10.9 6.4C12.1 5.2 14 5.2 15.1 6.4C15.7 7 16.4 7.3 17.2 7.3C18.9 7.3 20.2 8.6 20.2 10.3C20.2 11.1 20.5 11.9 21.1 12.4C22.3 13.6 22.3 15.4 21.1 16.6Z" fill="#33A1FD"/>
<path d="M11.5992 15.8002C11.2992 15.8002 11.0992 15.7002 10.8992 15.5002L9.49922 14.1002C9.09922 13.7002 9.09922 13.1002 9.49922 12.7002C9.89922 12.3002 10.4992 12.3002 10.8992 12.7002L11.3992 13.2002L13.0992 10.7002C13.3992 10.2002 13.9992 10.1002 14.4992 10.4002C14.9992 10.7002 15.0992 11.3002 14.7992 11.8002L12.3992 15.4002C12.2992 15.6002 11.9992 15.7002 11.5992 15.8002C11.6992 15.8002 11.6992 15.8002 11.5992 15.8002Z" fill="white"/>
<path d="M12 22.5004C11 22.5004 10 22.1004 9.2 21.3004C8.8 20.9004 8.3 20.7004 7.8 20.7004C5.6 20.7004 3.8 18.9004 3.8 16.7004C3.8 16.2004 3.6 15.7004 3.2 15.3004C1.6 13.7004 1.6 11.2004 3.2 9.60039C3.6 9.20039 3.8 8.70039 3.8 8.20039C3.8 6.00039 5.6 4.20039 7.8 4.20039C8.3 4.20039 8.8 4.00039 9.2 3.60039C10.8 2.00039 13.3 2.00039 14.9 3.60039C15.3 4.00039 15.8 4.20039 16.3 4.20039C18.5 4.20039 20.3 6.00039 20.3 8.20039C20.3 8.70039 20.5 9.20039 20.9 9.60039C22.5 11.2004 22.5 13.7004 20.9 15.3004C20.6 15.6004 20.4 16.1004 20.4 16.7004C20.4 18.9004 18.6 20.7004 16.4 20.7004C15.9 20.7004 15.4 20.9004 15 21.3004C14 22.1004 13 22.5004 12 22.5004ZM12 4.50039C11.5 4.50039 11 4.70039 10.6 5.10039C9.8 5.80039 8.8 6.30039 7.8 6.30039C6.7 6.30039 5.8 7.20039 5.8 8.30039C5.8 9.40039 5.4 10.4004 4.6 11.1004C3.8 11.9004 3.8 13.2004 4.6 13.9004C5.4 14.7004 5.8 15.7004 5.8 16.7004C5.8 17.8004 6.7 18.7004 7.8 18.7004C8.9 18.7004 9.9 19.1004 10.6 19.9004C11.4 20.7004 12.7 20.7004 13.4 19.9004C14.2 19.1004 15.2 18.7004 16.2 18.7004C17.3 18.7004 18.2 17.8004 18.2 16.7004C18.2 15.6004 18.6 14.6004 19.4 13.9004C20.2 13.1004 20.2 11.9004 19.4 11.1004C18.6 10.3004 18.2 9.30039 18.2 8.30039C18.2 7.20039 17.3 6.30039 16.2 6.30039C15.1 6.30039 14.1 5.90039 13.4 5.10039C13 4.70039 12.5 4.50039 12 4.50039Z" fill="white"/>
</svg>
