<svg width="22" height="26" viewBox="0 0 22 26" fill="none" xmlns="http://www.w3.org/2000/svg">
<path d="M19.3987 8.45301L20.6121 7.25301C20.8631 7.00194 21.0042 6.66141 21.0042 6.30634C21.0042 5.95127 20.8631 5.61075 20.6121 5.35967C20.361 5.1086 20.0205 4.96755 19.6654 4.96755C19.3103 4.96755 18.9698 5.1086 18.7187 5.35967L17.5187 6.57301C15.6501 5.12748 13.3545 4.34319 10.9921 4.34319C8.62961 4.34319 6.334 5.12748 4.4654 6.57301L3.25207 5.34634C2.99923 5.09527 2.657 4.95492 2.30069 4.95617C1.94437 4.95742 1.60314 5.10017 1.35207 5.35301C1.10099 5.60585 0.960647 5.94807 0.961897 6.30439C0.963147 6.66071 1.10589 7.00194 1.35873 7.25301L2.5854 8.46634C1.12275 10.3297 0.32912 12.6308 0.332066 14.9997C0.327712 16.7002 0.730017 18.3772 1.50543 19.8907C2.28084 21.4042 3.40689 22.7104 4.78965 23.7003C6.17242 24.6902 7.77183 25.3351 9.45448 25.5813C11.1371 25.8275 12.8543 25.6678 14.4627 25.1155C16.0711 24.5633 17.5241 23.6345 18.7006 22.4066C19.8771 21.1786 20.743 19.6872 21.226 18.0567C21.7091 16.4262 21.7952 14.7038 21.4774 13.0332C21.1595 11.3626 20.4468 9.79221 19.3987 8.45301ZM10.9987 22.9997C9.41648 22.9997 7.86976 22.5305 6.55417 21.6514C5.23858 20.7724 4.2132 19.523 3.6077 18.0611C3.0022 16.5993 2.84377 14.9908 3.15245 13.439C3.46113 11.8871 4.22306 10.4616 5.34188 9.34282C6.4607 8.224 7.88616 7.46207 9.43801 7.15339C10.9899 6.84471 12.5984 7.00314 14.0602 7.60864C15.522 8.21414 16.7714 9.23952 17.6505 10.5551C18.5295 11.8707 18.9987 13.4174 18.9987 14.9997C18.9987 17.1214 18.1559 19.1562 16.6556 20.6565C15.1553 22.1568 13.1205 22.9997 10.9987 22.9997ZM8.33207 2.99967H13.6654C14.019 2.99967 14.3582 2.8592 14.6082 2.60915C14.8583 2.3591 14.9987 2.01996 14.9987 1.66634C14.9987 1.31272 14.8583 0.973581 14.6082 0.723532C14.3582 0.473484 14.019 0.333008 13.6654 0.333008H8.33207C7.97844 0.333008 7.63931 0.473484 7.38926 0.723532C7.13921 0.973581 6.99873 1.31272 6.99873 1.66634C6.99873 2.01996 7.13921 2.3591 7.38926 2.60915C7.63931 2.8592 7.97844 2.99967 8.33207 2.99967ZM12.3321 10.9997C12.3321 10.6461 12.1916 10.3069 11.9415 10.0569C11.6915 9.80682 11.3524 9.66634 10.9987 9.66634C10.6451 9.66634 10.306 9.80682 10.0559 10.0569C9.80588 10.3069 9.6654 10.6461 9.6654 10.9997V13.5197C9.36349 13.7897 9.15069 14.145 9.05516 14.5387C8.95962 14.9323 8.98586 15.3456 9.13039 15.724C9.27492 16.1024 9.53093 16.428 9.86456 16.6577C10.1982 16.8874 10.5937 17.0104 10.9987 17.0104C11.4038 17.0104 11.7993 16.8874 12.1329 16.6577C12.4665 16.428 12.7225 16.1024 12.8671 15.724C13.0116 15.3456 13.0378 14.9323 12.9423 14.5387C12.8468 14.145 12.634 13.7897 12.3321 13.5197V10.9997Z" fill="black"/>
</svg>
