<svg width="40" height="40" viewBox="0 0 40 40" fill="none" xmlns="http://www.w3.org/2000/svg">
<path d="M31.1474 12.285L31.7841 11.6483L32.0791 11.9433C32.3224 12.1867 32.6424 12.31 32.9624 12.31C33.2824 12.31 33.6024 12.1883 33.8457 11.9433C34.3341 11.455 34.3341 10.6633 33.8457 10.175L31.4891 7.81833C31.0007 7.33 30.2091 7.33 29.7207 7.81833C29.2324 8.30667 29.2324 9.09833 29.7207 9.58667L30.0157 9.88167L29.3791 10.5183C27.1407 8.63167 24.3307 7.41 21.2474 7.14667V6.25H21.6641C22.3541 6.25 22.9141 5.69 22.9141 5C22.9141 4.31 22.3541 3.75 21.6641 3.75H18.3307C17.6407 3.75 17.0807 4.31 17.0807 5C17.0807 5.69 17.6407 6.25 18.3307 6.25H18.7474V7.14667C11.2891 7.78333 5.41406 14.0467 5.41406 21.6667C5.41406 29.7083 11.9557 36.25 19.9974 36.25C28.0391 36.25 34.5807 29.7083 34.5807 21.6667C34.5807 18.095 33.2874 14.8233 31.1474 12.285ZM19.9991 33.75C13.3357 33.75 7.91573 28.33 7.91573 21.6667C7.91573 15.0033 13.3357 9.58333 19.9991 9.58333C26.6624 9.58333 32.0824 15.0033 32.0824 21.6667C32.0824 28.33 26.6624 33.75 19.9991 33.75ZM26.6657 22.9167H19.9991C19.3091 22.9167 18.7491 22.3567 18.7491 21.6667V15C18.7491 14.31 19.3091 13.75 19.9991 13.75C20.6891 13.75 21.2491 14.31 21.2491 15V20.4167H26.6657C27.3557 20.4167 27.9157 20.9767 27.9157 21.6667C27.9157 22.3567 27.3557 22.9167 26.6657 22.9167Z" fill="white"/>
</svg>
