<svg width="40" height="40" viewBox="0 0 40 40" fill="none" xmlns="http://www.w3.org/2000/svg">
<path d="M36.895 25.9897C36.1767 24.5497 34.485 23.853 32.955 24.358L30.1183 25.308C29.9033 25.3797 29.68 25.4147 29.4567 25.4147H26.2083C26.2283 25.278 26.25 25.1414 26.25 24.998V24.513C26.25 23.273 25.4633 22.1697 24.2917 21.7647L22.6383 21.193C21.31 20.733 19.9167 20.488 18.5117 20.463L12.5967 20.3614C12.1167 19.408 11.1383 18.7464 10 18.7464H6.66667C5.05833 18.7464 3.75 20.0547 3.75 21.663V33.3297C3.75 34.938 5.05833 36.2464 6.66667 36.2464H10C11.1583 36.2464 12.1533 35.5614 12.6233 34.5797H25.8783C26.585 34.5797 27.295 34.4114 27.9283 34.0964L35.4383 30.3414C37.0383 29.5414 37.6917 27.588 36.8933 25.9864L36.895 25.9897ZM10.4167 33.333C10.4167 33.563 10.23 33.7497 10 33.7497H6.66667C6.43667 33.7497 6.25 33.563 6.25 33.333V21.6664C6.25 21.4364 6.43667 21.2497 6.66667 21.2497H10C10.23 21.2497 10.4167 21.4364 10.4167 21.6664V33.333ZM34.3217 28.108L26.8117 31.863C26.5233 32.0064 26.2 32.083 25.8783 32.083H12.915V22.8497H17.4567C18.8833 22.8497 20.3017 23.078 21.6567 23.528L23.4667 24.128C23.6333 24.1847 23.7483 24.3447 23.7483 24.5147V24.998C23.7483 25.2247 23.5583 25.4147 23.3317 25.4147H16.665C15.975 25.4147 15.415 25.9747 15.415 26.6647C15.415 27.3547 15.975 27.9147 16.665 27.9147H29.455C29.95 27.9147 30.44 27.8347 30.9117 27.6764L33.7483 26.7264C34.105 26.608 34.4917 26.7697 34.6567 27.103C34.8417 27.473 34.6917 27.923 34.3217 28.108ZM30.5483 13.448C30.7817 13.683 30.915 13.998 30.915 14.3314C30.915 14.6647 30.7817 14.983 30.5483 15.2147C30.315 15.448 29.9983 15.5814 29.665 15.5814C29.3317 15.5814 29.015 15.448 28.7817 15.2147C28.5483 14.9814 28.415 14.6647 28.415 14.3314C28.415 13.998 28.5483 13.6814 28.7817 13.448C29.1317 13.098 29.6817 12.983 30.1483 13.183C30.2983 13.2314 30.4317 13.333 30.5483 13.448ZM26.115 12.1147L28.7817 9.44805C29.27 8.95971 30.0617 8.95971 30.55 9.44805C31.0383 9.93638 31.0383 10.728 30.55 11.2164L27.8833 13.883C27.64 14.1264 27.32 14.2497 27 14.2497C26.68 14.2497 26.36 14.128 26.1167 13.883C25.6283 13.3947 25.6283 12.603 26.1167 12.1147H26.115ZM28.3317 19.5814C32.6967 19.5814 36.2483 16.0297 36.2483 11.6647C36.2483 7.29971 32.6967 3.74805 28.3317 3.74805C23.9667 3.74805 20.415 7.29971 20.415 11.6647C20.415 16.0297 23.9667 19.5814 28.3317 19.5814ZM28.3317 6.24805C31.3183 6.24805 33.7483 8.67805 33.7483 11.6647C33.7483 14.6514 31.3183 17.0814 28.3317 17.0814C25.345 17.0814 22.915 14.6514 22.915 11.6647C22.915 8.67805 25.345 6.24805 28.3317 6.24805ZM26.115 9.88138C25.8817 9.64805 25.7483 9.33138 25.7483 8.99805C25.7483 8.83138 25.7817 8.68305 25.8483 8.51471C25.915 8.36471 25.9983 8.23138 26.115 8.11638C26.465 7.76638 27.015 7.64971 27.4817 7.84971C27.6317 7.91638 27.765 7.99971 27.8817 8.11638C27.9983 8.23138 28.0817 8.36471 28.1483 8.51471C28.215 8.68305 28.2483 8.83138 28.2483 8.99805C28.2483 9.33138 28.115 9.64971 27.8817 9.88138C27.6483 10.1147 27.3317 10.248 26.9983 10.248C26.665 10.248 26.3483 10.1147 26.115 9.88138Z" fill="white"/>
</svg>
