<svg width="40" height="40" viewBox="0 0 40 40" fill="none" xmlns="http://www.w3.org/2000/svg">
<path d="M34.2738 30.9463C33.3622 29.9763 32.6255 28.8496 32.0855 27.9763C31.0922 26.3729 29.3788 25.4163 27.5022 25.4163C26.4355 25.4163 25.3872 25.7446 24.4922 26.3513C24.0855 26.2846 23.6772 26.2396 23.2705 26.1896C23.6288 25.4313 24.0072 24.6796 24.4205 23.9546C24.6972 23.4713 24.9938 22.9979 25.2955 22.5296C25.8355 22.7679 26.4122 22.9213 27.0372 22.9213C29.5705 22.9213 32.5838 21.1329 34.2322 18.8446C35.7838 16.6929 36.4905 13.5696 35.9922 11.0713C35.6838 9.52459 34.9505 8.35626 33.8738 7.69459C31.3605 6.14793 27.8822 7.85793 26.1538 9.38126C23.5405 11.6863 22.5488 15.4096 22.7272 18.0796C22.7972 19.1296 23.0538 20.0346 23.4472 20.7796C23.0272 21.4129 22.6255 22.0579 22.2505 22.7163C21.7372 23.6129 21.2722 24.5463 20.8405 25.4879C20.0672 23.6396 19.1638 21.8446 18.1605 20.1179C18.8972 19.1846 19.3555 17.8763 19.4605 16.2913C19.6638 13.2446 18.5338 8.99459 15.5538 6.36626C13.5938 4.63626 9.65716 2.69793 6.8355 4.42959C5.6355 5.16793 4.81883 6.47793 4.4705 8.21459C3.90216 11.0613 4.70883 14.6229 6.47716 17.0763C8.3555 19.6829 11.7822 21.7279 14.6472 21.7279C15.1488 21.7279 15.6305 21.6613 16.0855 21.5279C16.9338 22.9896 17.6905 24.5046 18.3605 26.0613C17.7855 26.1013 17.2055 26.1463 16.5905 26.2263C15.6022 25.6979 14.4872 25.4213 13.3355 25.4213C10.9038 25.4213 8.6805 26.6613 7.67383 28.5813C7.26716 29.3563 6.6105 30.0363 5.8105 30.8646C5.28716 31.4079 4.86216 31.9779 4.5455 32.5613C4.06383 33.4479 4.08883 34.5013 4.61216 35.3779C5.14383 36.2696 6.11383 36.8246 7.14716 36.8246H32.8588C33.8922 36.8246 34.8638 36.2696 35.3938 35.3779C35.9155 34.5013 35.9405 33.4496 35.4605 32.5629C35.1605 32.0096 34.7622 31.4663 34.2755 30.9513L34.2738 30.9463ZM25.2205 17.9096C25.0888 15.9179 25.8422 12.9863 27.8072 11.2529C29.2122 10.0129 31.4538 9.14126 32.5622 9.82126C33.0255 10.1063 33.3722 10.7229 33.5388 11.5579C33.9055 13.3896 33.3555 15.7829 32.2038 17.3813C30.7672 19.3746 28.2405 20.5579 26.7872 20.3979C27.5472 19.4013 28.3605 18.4429 29.2355 17.5346C29.7138 17.0363 29.6988 16.2463 29.2005 15.7663C28.7038 15.2863 27.9138 15.3046 27.4322 15.7996C26.6672 16.5946 25.9538 17.4329 25.2705 18.2913C25.2538 18.1646 25.2288 18.0446 25.2205 17.9096ZM8.50383 15.6113C7.13883 13.7146 6.48716 10.8729 6.9205 8.70126C7.1255 7.67793 7.5605 6.91459 8.14383 6.55459C8.47883 6.34959 8.8955 6.25626 9.35883 6.25626C10.7755 6.25626 12.6272 7.11793 13.8972 8.23626C16.2272 10.2913 17.1205 13.7629 16.9638 16.1196C16.9222 16.7329 16.8055 17.2746 16.6388 17.7329C15.4072 15.9013 14.0805 14.1263 12.5922 12.4896C12.1272 11.9813 11.3388 11.9429 10.8255 12.4063C10.3155 12.8696 10.2772 13.6613 10.7422 14.1729C12.1655 15.7363 13.4338 17.4346 14.6088 19.1896C12.8138 19.1646 10.0905 17.8129 8.50383 15.6113ZM33.2438 34.0946C33.2122 34.1479 33.0905 34.3213 32.8572 34.3213H7.1455C6.9105 34.3213 6.7905 34.1479 6.75883 34.0963C6.68716 33.9763 6.68216 33.8579 6.74216 33.7479C6.9505 33.3646 7.24216 32.9763 7.71383 32.4879C8.5005 31.6729 9.31383 30.8296 9.88716 29.7396C10.4688 28.6329 11.8222 27.9163 13.3355 27.9163C14.1755 27.9163 14.9822 28.1446 15.6672 28.5763C15.9172 28.7329 16.2155 28.8079 16.5072 28.7546C17.8038 28.5729 18.9155 28.4879 20.0022 28.4879C21.5672 28.4879 23.1072 28.6279 24.5805 28.9046C24.9505 28.9746 25.3338 28.8713 25.6222 28.6263C26.0038 28.3029 26.6372 27.9163 27.5022 27.9163C28.5088 27.9163 29.4272 28.4313 29.9605 29.2913C30.5622 30.2646 31.3888 31.5279 32.4555 32.6596C32.7938 33.0179 33.0655 33.3846 33.2622 33.7479C33.3222 33.8579 33.3155 33.9746 33.2455 34.0929L33.2438 34.0946Z" fill="white"/>
</svg>
