<svg width="40" height="40" viewBox="0 0 40 40" fill="none" xmlns="http://www.w3.org/2000/svg">
<path d="M34.5767 20.64L32.9167 19.7033V13.3333C32.9167 10.805 30.8617 8.75 28.3333 8.75H24.5833V6.66667C24.5833 5.05833 23.275 3.75 21.6667 3.75H15C13.3917 3.75 12.0833 5.05833 12.0833 6.66667V8.75H8.33333C5.805 8.75 3.75 10.805 3.75 13.3333V26.6667C3.75 29.195 5.805 31.25 8.33333 31.25H20.7783C22.2717 33.635 24.485 35.4483 27.16 36.2033C27.2717 36.235 27.3867 36.25 27.5 36.25C27.6133 36.25 27.7283 36.2333 27.84 36.2033C32.7917 34.8067 36.25 29.8567 36.25 24.1667V23.62C36.25 22.3633 35.6083 21.2217 34.5767 20.64ZM29.2217 17.62L30.4167 17.0233V18.295L29.2217 17.6217V17.62ZM14.5833 6.66667C14.5833 6.43667 14.77 6.25 15 6.25H21.6667C21.8967 6.25 22.0833 6.43667 22.0833 6.66667V8.75H14.5833V6.66667ZM6.25 13.3333C6.25 12.185 7.185 11.25 8.33333 11.25H28.3333C29.4817 11.25 30.4167 12.185 30.4167 13.3333V14.2283L19.2667 19.8033C18.68 20.095 17.9867 20.095 17.4017 19.8033L6.25167 14.2283L6.25 13.3333ZM8.33333 28.75C7.185 28.75 6.25 27.815 6.25 26.6667V17.0217L16.285 22.0383C16.9267 22.3583 17.63 22.52 18.3333 22.52C18.5467 22.52 18.7583 22.4767 18.97 22.4467C18.8417 22.8183 18.75 23.2067 18.75 23.6183V24.165C18.75 25.7783 19.055 27.3183 19.5667 28.7483L8.33333 28.75ZM33.75 24.1667C33.75 28.6083 31.1983 32.4683 27.5 33.6933C23.8017 32.47 21.25 28.6083 21.25 24.1667V23.62C21.25 23.275 21.4117 22.9533 21.65 22.8183L27.275 19.6467C27.3483 19.605 27.425 19.585 27.5 19.585C27.575 19.585 27.6517 19.605 27.725 19.6467L33.35 22.8183C33.59 22.9533 33.75 23.275 33.75 23.62V24.1667ZM30.8833 24.1167C31.3717 24.605 31.3717 25.3967 30.8833 25.885L27.55 29.2183C27.3067 29.4617 26.9867 29.585 26.6667 29.585C26.3467 29.585 26.0267 29.4633 25.7833 29.2183L24.1167 27.5517C23.6283 27.0633 23.6283 26.2717 24.1167 25.7833C24.605 25.295 25.3967 25.295 25.885 25.7833L26.6683 26.5667L29.1183 24.1167C29.6067 23.6283 30.3983 23.6283 30.8867 24.1167H30.8833Z" fill="white"/>
</svg>
