<svg width="64" height="64" viewBox="0 0 64 64" fill="none" xmlns="http://www.w3.org/2000/svg">
<path d="M13.2242 37.2512C13.2278 33.6181 14.2818 30.0636 16.2592 27.0159C18.2366 23.9681 21.0531 21.5571 24.3693 20.0734C24.2693 16.6118 22.4484 13.1002 19.207 12.0697C18.3466 11.6495 15.4953 14.2407 15.7054 18.8028C14.9088 18.2763 14.0078 17.9282 13.0642 17.7823C12.9139 17.7707 12.7629 17.7915 12.6214 17.8433C12.4798 17.8951 12.3511 17.9766 12.2438 18.0825C12.1237 18.2025 9.42248 21.0538 11.0432 25.916C9.76566 25.4693 8.38583 25.4032 7.07144 25.7259C6.92759 25.7706 6.79549 25.8468 6.68474 25.9489C6.57398 26.051 6.48735 26.1765 6.43113 26.3162C6.37113 26.4663 5.0505 30.0279 8.21197 33.7996C6.82701 33.8396 5.48703 34.3002 4.37019 35.1202C4.2536 35.2139 4.15973 35.3328 4.09562 35.468C4.03151 35.6031 3.99883 35.751 4.00003 35.9006C4.12069 37.2257 4.58458 38.4965 5.34597 39.5877C6.10737 40.6789 7.13998 41.5528 8.34203 42.1234C7.38403 42.5324 6.53701 43.1634 5.87087 43.9643C5.78126 44.0845 5.72027 44.2236 5.69254 44.3709C5.6648 44.5183 5.67105 44.67 5.71082 44.8146C5.75082 44.9847 6.84134 48.8765 12.0337 49.937C11.5326 50.3965 11.1131 50.9378 10.7931 51.5377C10.7289 51.6738 10.6955 51.8224 10.6955 51.9729C10.6955 52.1234 10.7289 52.272 10.7931 52.4081C13.0742 56.8001 20.2674 57.3603 23.9791 54.2489C20.7631 52.722 18.0457 50.3147 16.1422 47.3062C14.2387 44.2977 13.2269 40.8113 13.2242 37.2512ZM55.6836 42.1234C59.9956 39.7123 60.5058 35.5905 59.6554 35.1202C58.5386 34.3002 57.1986 33.8396 55.8136 33.7996C58.9751 30.0279 57.6545 26.4663 57.5945 26.3162C57.5382 26.1765 57.4516 26.051 57.3409 25.9489C57.2301 25.8468 57.098 25.7706 56.9542 25.7259C55.6398 25.4032 54.2599 25.4693 52.9824 25.916C54.6031 21.0538 51.9019 18.2025 51.7818 18.0825C51.6745 17.9766 51.5457 17.8951 51.4042 17.8433C51.2627 17.7915 51.1117 17.7707 50.9614 17.7823C50.0178 17.9282 49.1168 18.2763 48.3202 18.8028C48.5203 14.2207 45.689 11.6795 44.8186 12.0698C44.6486 12.1198 40.7268 13.2803 39.7864 18.5828C39.7017 19.0623 39.6482 19.5469 39.6263 20.0334C42.9301 21.4871 45.7459 23.8605 47.7378 26.8707C49.7296 29.8808 50.8134 33.4004 50.8598 37.0096C50.9063 40.6188 49.9133 44.1651 47.9995 47.2254C46.0857 50.2858 43.3318 52.7309 40.0665 54.269C43.7581 57.3204 50.9215 56.8302 53.2325 52.4082C53.2967 52.2721 53.33 52.1235 53.33 51.973C53.33 51.8225 53.2967 51.6739 53.2325 51.5378C52.9124 50.9379 52.493 50.3966 51.9918 49.937C57.1842 48.8765 58.2747 44.9848 58.3147 44.8147C58.3545 44.6701 58.3608 44.5184 58.333 44.371C58.3053 44.2237 58.2443 44.0846 58.1547 43.9643C57.4886 43.1635 56.6416 42.5325 55.6836 42.1234Z" fill="#2176FF"/>
<path d="M48.86 37.2511C48.86 33.9248 47.8737 30.6733 46.0257 27.9076C44.1778 25.142 41.5512 22.9864 38.4782 21.7135C35.4051 20.4406 32.0237 20.1076 28.7614 20.7565C25.499 21.4054 22.5024 23.0071 20.1504 25.3591C17.7984 27.7111 16.1967 30.7077 15.5478 33.9701C14.8988 37.2324 15.2319 40.6139 16.5048 43.6869C17.7777 46.7599 19.9333 49.3865 22.6989 51.2344C25.4646 53.0824 28.7161 54.0687 32.0423 54.0687C36.5012 54.064 40.7761 52.2906 43.929 49.1377C47.0819 45.9848 48.8553 41.7099 48.86 37.2511ZM41.0564 37.7413L38.7654 39.7422C38.6599 39.8396 38.5814 39.9627 38.5376 40.0994C38.4937 40.2362 38.4861 40.382 38.5153 40.5226L39.1956 43.4839C39.3087 44.0162 39.265 44.57 39.0699 45.078C38.8747 45.5861 38.5364 46.0266 38.096 46.3464C37.6556 46.6661 37.1319 46.8513 36.5884 46.8795C36.0449 46.9077 35.5049 46.7777 35.0337 46.5053L32.4225 44.9446C32.2984 44.8709 32.1567 44.832 32.0123 44.832C31.868 44.832 31.7263 44.8709 31.6022 44.9446C30.7017 45.4048 28.6308 47.0256 27.5603 46.9055C27.141 46.9016 26.7278 46.8044 26.3508 46.6208C25.9739 46.4372 25.6425 46.1719 25.3809 45.8442C25.1194 45.5165 24.9341 45.1346 24.8386 44.7263C24.7432 44.318 24.7399 43.8936 24.8291 43.4839L25.5094 40.5226C25.5386 40.382 25.5309 40.2362 25.4871 40.0994C25.4433 39.9627 25.3648 39.8396 25.2592 39.7422L22.9682 37.7413C22.562 37.3778 22.2702 36.9041 22.1284 36.3777C21.9865 35.8514 22.0007 35.2952 22.1693 34.7768C22.3379 34.2584 22.6535 33.8002 23.0777 33.4579C23.502 33.1157 24.0166 32.9041 24.5589 32.849L27.5803 32.5689C27.724 32.5578 27.8619 32.5071 27.9784 32.4223C28.095 32.3375 28.1858 32.222 28.2406 32.0887L29.4412 29.2974C29.6556 28.793 30.0138 28.3627 30.4709 28.0603C30.9281 27.7579 31.4642 27.5967 32.0123 27.5967C32.5605 27.5967 33.0965 27.7579 33.5537 28.0603C34.0109 28.3627 34.369 28.793 34.5835 29.2974L35.784 32.0887C35.8389 32.222 35.9296 32.3375 36.0462 32.4223C36.1628 32.507 36.3006 32.5578 36.4443 32.5689L39.4757 32.849C40.0206 32.8997 40.5386 33.1092 40.9656 33.4514C41.3927 33.7936 41.7099 34.2535 41.8782 34.7743C42.0464 35.295 42.0582 35.8536 41.9122 36.381C41.7661 36.9083 41.4686 37.3813 41.0564 37.7413ZM27.2802 17.1819C27.3583 17.3588 27.4857 17.5094 27.6471 17.6159C27.8086 17.7223 27.9972 17.78 28.1905 17.7822H35.834C36.0274 17.78 36.216 17.7223 36.3775 17.6159C36.5389 17.5094 36.6663 17.3588 36.7444 17.1819L39.3356 11.3093C39.4123 11.1297 39.435 10.9317 39.4009 10.7394C39.3668 10.5472 39.2774 10.369 39.1437 10.2268C39.0099 10.0845 38.8376 9.98435 38.6478 9.9385C38.458 9.89265 38.259 9.90311 38.0751 9.96862L35.4838 10.8991L32.7326 8.07781C32.5398 7.89015 32.2813 7.78516 32.0123 7.78516C31.7432 7.78516 31.4848 7.89015 31.292 8.07781L28.5407 10.8991L25.9495 9.96862C25.7656 9.90311 25.5665 9.89264 25.3767 9.93849C25.187 9.98434 25.0146 10.0845 24.8809 10.2268C24.7471 10.369 24.6577 10.5472 24.6236 10.7394C24.5896 10.9317 24.6122 11.1297 24.6889 11.3093L27.2802 17.1819Z" fill="#2176FF"/>
<path d="M39.2857 34.8401L36.2643 34.5599C35.7609 34.5184 35.2784 34.3398 34.8692 34.0435C34.46 33.7472 34.1398 33.3446 33.9433 32.8792L32.7427 30.0879C32.6834 29.943 32.5823 29.8189 32.4522 29.7316C32.3221 29.6443 32.169 29.5977 32.0124 29.5977C31.8557 29.5977 31.7026 29.6443 31.5726 29.7316C31.4425 29.8189 31.3414 29.943 31.2821 30.0879L30.0815 32.8792C29.885 33.3446 29.5647 33.7472 29.1556 34.0435C28.7464 34.3398 28.2639 34.5184 27.7604 34.5599L24.739 34.8401C24.5824 34.8531 24.4331 34.9123 24.3102 35.0103C24.1873 35.1082 24.0963 35.2405 24.0487 35.3903C23.9991 35.5374 23.9945 35.6959 24.0355 35.8457C24.0765 35.9954 24.1612 36.1294 24.2789 36.2307L26.5699 38.2416C26.9502 38.5725 27.2338 39.0003 27.3906 39.4794C27.5473 39.9585 27.5714 40.4712 27.4603 40.9629L26.78 43.9242C26.7461 44.0767 26.7576 44.2358 26.813 44.3819C26.8685 44.528 26.9656 44.6546 27.0922 44.7461C27.2188 44.8376 27.3695 44.89 27.5256 44.8969C27.6817 44.9037 27.8364 44.8647 27.9705 44.7846L30.5817 43.2339C31.0136 42.9737 31.5082 42.8362 32.0124 42.8362C32.5165 42.8362 33.0112 42.9737 33.443 43.2339L36.0542 44.7846C36.1884 44.8647 36.343 44.9037 36.4991 44.8969C36.6552 44.89 36.8059 44.8376 36.9325 44.7461C37.0592 44.6546 37.1562 44.528 37.2117 44.3819C37.2672 44.2358 37.2787 44.0767 37.2447 43.9242L36.5644 40.9629C36.4533 40.4712 36.4774 39.9585 36.6342 39.4794C36.7909 39.0003 37.0745 38.5725 37.4548 38.2416L39.7458 36.2307C39.8635 36.1294 39.9482 35.9954 39.9892 35.8457C40.0302 35.6959 40.0256 35.5374 39.976 35.3903C39.9284 35.2405 39.8374 35.1082 39.7145 35.0103C39.5916 34.9123 39.4424 34.8531 39.2857 34.8401Z" fill="#2176FF"/>
</svg>
