<svg width="40" height="40" viewBox="0 0 40 40" fill="none" xmlns="http://www.w3.org/2000/svg">
<path d="M26.666 5H13.3327C11.5646 5 9.86888 5.70238 8.61864 6.95262C7.36839 8.20286 6.66602 9.89856 6.66602 11.6667V35L8.73768 32.9283C10.6129 31.0534 13.156 30.0001 15.8077 30H26.666C28.4341 30 30.1298 29.2976 31.3801 28.0474C32.6303 26.7971 33.3327 25.1014 33.3327 23.3333V11.6667C33.3327 9.89856 32.6303 8.20286 31.3801 6.95262C30.1298 5.70238 28.4341 5 26.666 5Z" fill="#F1F4FA"/>
<path d="M32.7327 26.0663C32.2089 27.2375 31.3574 28.232 30.281 28.93C29.2045 29.6279 27.949 29.9994 26.666 29.9996H15.8143C13.1582 29.9996 10.6109 31.0548 8.73268 32.9329L6.66602 34.9996V11.6663C6.6662 10.3833 7.03768 9.12783 7.73563 8.05134C8.43358 6.97484 9.42816 6.12334 10.5993 5.59961C10.2048 6.45688 10.0002 7.38925 9.99935 8.33294V26.0213C9.99929 26.2854 10.062 26.5457 10.1823 26.7808C10.3025 27.0159 10.477 27.219 10.6912 27.3735C10.9054 27.528 11.1532 27.6293 11.4143 27.6692C11.6753 27.7091 11.9421 27.6864 12.1927 27.6029C14.0515 26.9829 15.9982 26.6666 17.9577 26.6663H29.9993C30.943 26.6655 31.8754 26.4608 32.7327 26.0663Z" fill="white"/>
<path d="M20 8.33301C18.6739 8.33301 17.4021 8.85979 16.4645 9.79747C15.5268 10.7352 15 12.0069 15 13.333C15 13.775 15.1756 14.199 15.4882 14.5115C15.8007 14.8241 16.2246 14.9997 16.6667 14.9997C17.1087 14.9997 17.5326 14.8241 17.8452 14.5115C18.1577 14.199 18.3333 13.775 18.3333 13.333C18.3337 13.0482 18.4071 12.7683 18.5464 12.5199C18.6857 12.2715 18.8863 12.063 19.1292 11.9142C19.372 11.7654 19.6489 11.6813 19.9335 11.6699C20.218 11.6585 20.5008 11.7203 20.7547 11.8492C21.0086 11.9782 21.2252 12.17 21.3839 12.4065C21.5426 12.643 21.6381 12.9162 21.6612 13.2C21.6843 13.4839 21.6342 13.7689 21.5159 14.028C21.3975 14.287 21.2147 14.5114 20.985 14.6797C20.188 15.2253 19.532 15.9523 19.071 16.801C18.61 17.6497 18.3572 18.5958 18.3333 19.5613V19.9997C18.3333 20.4417 18.5089 20.8656 18.8215 21.1782C19.134 21.4907 19.558 21.6663 20 21.6663C20.442 21.6663 20.866 21.4907 21.1785 21.1782C21.4911 20.8656 21.6667 20.4417 21.6667 19.9997V19.5613C21.6971 19.1208 21.8293 18.6933 22.0529 18.3124C22.2764 17.9316 22.5852 17.6077 22.955 17.3663C23.8054 16.7433 24.4371 15.8674 24.7598 14.8639C25.0826 13.8603 25.0799 12.7804 24.7522 11.7785C24.4244 10.7765 23.7884 9.9038 22.9349 9.28501C22.0814 8.66622 21.0542 8.33301 20 8.33301Z" fill="#2176FF"/>
<path d="M20.0007 26.6673C20.9211 26.6673 21.6673 25.9211 21.6673 25.0007C21.6673 24.0802 20.9211 23.334 20.0007 23.334C19.0802 23.334 18.334 24.0802 18.334 25.0007C18.334 25.9211 19.0802 26.6673 20.0007 26.6673Z" fill="#2176FF"/>
<path d="M26.6667 3.33301H13.3333C11.124 3.33565 9.00593 4.21448 7.4437 5.77671C5.88147 7.33894 5.00265 9.45702 5 11.6663V34.9997C5.00007 35.3293 5.09786 35.6514 5.281 35.9254C5.46414 36.1995 5.72441 36.413 6.02891 36.5391C6.33341 36.6653 6.66846 36.6983 6.99172 36.634C7.31497 36.5697 7.61191 36.411 7.845 36.178L9.915 34.108C10.6871 33.3316 11.6055 32.716 12.6171 32.2969C13.6287 31.8777 14.7134 31.6634 15.8083 31.6663H26.6667C28.876 31.6637 30.9941 30.7849 32.5563 29.2226C34.1185 27.6604 34.9974 25.5423 35 23.333V11.6663C34.9974 9.45702 34.1185 7.33894 32.5563 5.77671C30.9941 4.21448 28.876 3.33565 26.6667 3.33301ZM31.6667 23.333C31.6667 24.6591 31.1399 25.9309 30.2022 26.8685C29.2645 27.8062 27.9927 28.333 26.6667 28.333H15.8083C13.0752 28.3258 10.4275 29.2851 8.33333 31.0413V11.6663C8.33333 10.3403 8.86012 9.06849 9.7978 8.13081C10.7355 7.19313 12.0073 6.66634 13.3333 6.66634H26.6667C27.9927 6.66634 29.2645 7.19313 30.2022 8.13081C31.1399 9.06849 31.6667 10.3403 31.6667 11.6663V23.333Z" fill="#2176FF"/>
</svg>
