<svg width="16" height="16" viewBox="0 0 16 16" fill="none" xmlns="http://www.w3.org/2000/svg">
<path d="M16 7.99453C15.9726 6.70131 14.9179 6.18709 12.3096 6.51641C11.8468 6.57439 11.36 6.68052 10.8764 6.79978C11.3031 6.54486 11.721 6.27899 12.0886 5.99343C14.1652 4.38184 14.5481 3.27352 13.6521 2.33917C12.7177 1.4442 11.6083 1.82713 9.99781 3.90372C9.71225 4.27242 9.44311 4.69037 9.186 5.11597C9.30744 4.63566 9.41466 4.15208 9.47265 3.69037C9.80197 1.08315 9.28775 0.0273523 7.99453 0C6.70131 0.0273523 6.18709 1.08206 6.51641 3.69037C6.5744 4.15317 6.68052 4.63895 6.79978 5.12254C6.54485 4.69693 6.27899 4.27899 5.99343 3.91137C4.38183 1.83479 3.27352 1.45186 2.33917 2.34792C1.4442 3.28227 1.82713 4.39169 3.90372 6.00219C4.27243 6.28775 4.69037 6.55689 5.11597 6.814C4.63567 6.69256 4.15208 6.58534 3.69037 6.52735C1.08315 6.19803 0.0273523 6.71225 0 8.00547C0.0273523 9.29869 1.08205 9.81291 3.68927 9.48358C4.15207 9.4256 4.63895 9.31947 5.12254 9.20022C4.69584 9.45514 4.2779 9.721 3.91028 10.0066C1.8337 11.6182 1.45077 12.7265 2.34683 13.6608C3.28118 14.5558 4.39059 14.1729 6.00109 12.0963C6.28665 11.7276 6.5558 11.3096 6.81291 10.884C6.69147 11.3643 6.58424 11.8479 6.52625 12.3096C6.19693 14.9168 6.71116 15.9726 8.00437 16C9.29759 15.9726 9.81181 14.9179 9.48249 12.3096C9.4245 11.8468 9.31838 11.3611 9.19913 10.8775C9.45405 11.3031 9.71991 11.721 10.0055 12.0897C11.6171 14.1663 12.7254 14.5492 13.6597 13.6532C14.5547 12.7188 14.1718 11.6094 12.0952 9.9989C11.7265 9.71334 11.3085 9.4442 10.8829 9.18709C11.3632 9.30853 11.8468 9.41575 12.3085 9.47374C14.9158 9.80306 15.9715 9.28884 15.9989 7.99562L16 7.99453Z" fill="#2176FF"/>
</svg>
