<svg width="64" height="64" viewBox="0 0 64 64" fill="none" xmlns="http://www.w3.org/2000/svg">
<path d="M56 38.368V25.632C57.1666 25.2211 58.1774 24.4591 58.8936 23.4507C59.6099 22.4423 59.9963 21.2369 60 20C60 16.692 57.308 14 54 14C52.36 14 50.874 14.664 49.79 15.734L37.934 10.654C37.958 10.434 38 10.224 38 10C38 6.692 35.308 4 32 4C28.692 4 26 6.692 26 10C26 10.224 26.042 10.436 26.066 10.654L14.21 15.734C13.0903 14.6233 11.5771 14 10 14C6.692 14 4 16.692 4 20C4 22.604 5.678 24.804 8 25.632V38.368C6.83338 38.7789 5.82256 39.5409 5.10635 40.5493C4.39015 41.5577 4.00367 42.7631 4 44C4 47.308 6.692 50 10 50C11.64 50 13.126 49.336 14.21 48.266L26.066 53.346C26.042 53.566 26 53.776 26 54C26 57.308 28.692 60 32 60C35.308 60 38 57.308 38 54C38 53.776 37.958 53.564 37.934 53.346L49.79 48.266C50.9097 49.3767 52.4229 50 54 50C57.308 50 60 47.308 60 44C59.9963 42.7631 59.6099 41.5577 58.8936 40.5493C58.1774 39.5409 57.1666 38.7789 56 38.368ZM52 38.368C50.8334 38.7789 49.8226 39.5409 49.1064 40.5493C48.3901 41.5577 48.0037 42.7631 48 44C48 44.224 48.042 44.436 48.066 44.654L36.21 49.734C35.0903 48.6233 33.5771 48.0001 32 48.0001C30.4229 48.0001 28.9097 48.6233 27.79 49.734L15.934 44.654C15.958 44.434 16 44.224 16 44C15.9963 42.7631 15.6099 41.5577 14.8936 40.5493C14.1774 39.5409 13.1666 38.7789 12 38.368V25.632C13.1666 25.2211 14.1774 24.4591 14.8936 23.4507C15.6099 22.4423 15.9963 21.2369 16 20C16 19.776 15.958 19.564 15.934 19.346L27.79 14.266C28.9097 15.3767 30.4229 15.9999 32 15.9999C33.5771 15.9999 35.0903 15.3767 36.21 14.266L48.066 19.346C48.042 19.566 48 19.776 48 20C48 22.604 49.678 24.804 52 25.632V38.368Z" fill="#2176FF"/>
<path d="M42.744 23.1438L32.744 19.1438C32.2665 18.9521 31.7335 18.9521 31.256 19.1438L21.256 23.1438C20.8853 23.2924 20.5675 23.5486 20.3436 23.8794C20.1198 24.2102 20.0001 24.6004 20 24.9998C20 31.8478 22.9 37.9218 28.39 42.5658L30.708 44.5258C31.0691 44.8315 31.5269 44.9992 32 44.9992C32.4731 44.9992 32.9309 44.8315 33.292 44.5258L35.61 42.5658C41.098 37.9218 44 31.8478 44 24.9998C43.9999 24.6004 43.8802 24.2102 43.6564 23.8794C43.4325 23.5486 43.1147 23.2924 42.744 23.1438ZM37.788 27.8958L33.788 35.8958C33.6456 36.1785 33.4383 36.4233 33.1831 36.6104C32.9278 36.7975 32.6319 36.9215 32.3196 36.9722C32.0072 37.0229 31.6873 36.999 31.386 36.9023C31.0846 36.8056 30.8105 36.6389 30.586 36.4158L26.586 32.4158C26.2107 32.0408 25.9998 31.5321 25.9996 31.0016C25.9994 30.471 26.21 29.9621 26.585 29.5868C26.96 29.2116 27.4688 29.0006 27.9993 29.0004C28.5298 29.0003 29.0387 29.2108 29.414 29.5858L31.452 31.6238L34.212 26.1058C34.4494 25.6311 34.8656 25.2701 35.3691 25.1023C35.8727 24.9344 36.4223 24.9735 36.897 25.2108C37.3717 25.4482 37.7327 25.8644 37.9006 26.368C38.0684 26.8715 38.0294 27.4211 37.792 27.8958H37.788Z" fill="#2176FF"/>
</svg>
