<svg width="56" height="56" viewBox="0 0 56 56" fill="none" xmlns="http://www.w3.org/2000/svg">
<rect width="56" height="56" rx="28" fill="white"/>
<g clip-path="url(#clip0_16955_3470)">
<path d="M11 20.2311V29.4939C11 31.9189 14.6746 31.9289 14.6746 29.4939V20.2311C14.6746 19.7303 14.4811 19.25 14.1365 18.8959C13.7919 18.5417 13.3246 18.3428 12.8373 18.3428C12.35 18.3428 11.8827 18.5417 11.5381 18.8959C11.1936 19.25 11 19.7303 11 20.2311Z" fill="#FC5795"/>
<path d="M41.3359 20.2299V29.4927C41.3696 29.9686 41.5773 30.4137 41.9172 30.7387C42.2572 31.0636 42.7042 31.2442 43.1684 31.2442C43.6326 31.2442 44.0797 31.0636 44.4196 30.7387C44.7596 30.4137 44.9672 29.9686 45.0009 29.4927V20.2299C44.9672 19.7541 44.7596 19.309 44.4196 18.984C44.0797 18.6591 43.6326 18.4785 43.1684 18.4785C42.7042 18.4785 42.2572 18.6591 41.9172 18.984C41.5773 19.309 41.3696 19.7541 41.3359 20.2299Z" fill="#FC5795"/>
<path d="M18.582 12.8268V36.6795C18.582 37.1803 18.7756 37.6606 19.1202 38.0147C19.4647 38.3689 19.9321 38.5678 20.4193 38.5678C20.9066 38.5678 21.374 38.3689 21.7185 38.0147C22.0631 37.6606 22.2567 37.1803 22.2567 36.6795V12.8268C22.2567 12.326 22.0631 11.8457 21.7185 11.4916C21.374 11.1374 20.9066 10.9385 20.4193 10.9385C19.9321 10.9385 19.4647 11.1374 19.1202 11.4916C18.7756 11.8457 18.582 12.326 18.582 12.8268Z" fill="#FC5795"/>
<path d="M33.7422 12.8268V36.6795C33.7422 37.1803 33.9358 37.6606 34.2803 38.0147C34.6249 38.3689 35.0922 38.5678 35.5795 38.5678C36.0668 38.5678 36.5341 38.3689 36.8787 38.0147C37.2232 37.6606 37.4168 37.1803 37.4168 36.6795V12.8268C37.4168 12.326 37.2232 11.8457 36.8787 11.4916C36.5341 11.1374 36.0668 10.9385 35.5795 10.9385C35.0922 10.9385 34.6249 11.1374 34.2803 11.4916C33.9358 11.8457 33.7422 12.326 33.7422 12.8268Z" fill="#FC5795"/>
<path d="M26.1641 19.3567V43.2094C26.1641 45.6344 29.8387 45.6443 29.8387 43.2094V19.3567C29.8387 16.9317 26.1641 16.9217 26.1641 19.3567Z" fill="#FC5795"/>
</g>
<defs>
<clipPath id="clip0_16955_3470">
<rect width="34" height="34" fill="white" transform="translate(11 11)"/>
</clipPath>
</defs>
</svg>
