<svg width="56" height="56" viewBox="0 0 56 56" fill="none" xmlns="http://www.w3.org/2000/svg">
<rect width="56" height="56" rx="28" fill="white"/>
<path d="M30.2294 41.3228C30.2689 37.2843 29.245 34.0001 27.9426 33.9873C26.6401 33.9747 25.5522 37.2382 25.5128 41.2767C25.4733 45.3153 26.4972 48.5996 27.7996 48.6122C29.1021 48.625 30.1899 45.3614 30.2294 41.3228Z" fill="#312ECB"/>
<path d="M22.6747 40.4045C24.8915 37.0285 25.8059 33.7121 24.7172 32.9972C23.6283 32.2823 20.9487 34.4395 18.7319 37.8155C16.5151 41.1916 15.6007 44.5079 16.6894 45.2229C17.7783 45.9378 20.4579 43.7805 22.6747 40.4045Z" fill="#312ECB"/>
<path d="M16.807 35.5615C20.4972 33.9201 23.0595 31.6247 22.5301 30.4346C22.0008 29.2445 18.5802 29.6104 14.89 31.2519C11.1999 32.8932 8.63756 35.1886 9.16692 36.3787C9.69628 37.5688 13.1169 37.2029 16.807 35.5615Z" fill="#312ECB"/>
<path d="M22.0855 27.0982C22.2837 25.8109 19.2083 24.2692 15.2167 23.6548C11.2249 23.0404 7.8283 23.586 7.63016 24.8733C7.43201 26.1607 10.5073 27.7023 14.4991 28.3167C18.4908 28.9311 21.8874 28.3855 22.0855 27.0982Z" fill="#312ECB"/>
<path d="M23.5185 24.0295C24.3811 23.0535 22.6271 20.0942 19.6008 17.4196C16.5746 14.745 13.4221 13.3681 12.5595 14.344C11.697 15.32 13.451 18.2794 16.4773 20.954C19.5035 23.6285 22.656 25.0055 23.5185 24.0295Z" fill="#312ECB"/>
<path d="M26.3734 22.2365C27.6267 21.8819 27.7513 18.444 26.6516 14.5578C25.552 10.6717 23.6445 7.80884 22.3912 8.16349C21.1379 8.51813 21.0134 11.956 22.113 15.8422C23.2127 19.7283 25.1201 22.5912 26.3734 22.2365Z" fill="#312ECB"/>
<path d="M34.1242 15.9658C35.3004 12.1021 35.2437 8.66245 33.9976 8.28316C32.7515 7.90387 30.788 10.7285 29.6119 14.5923C28.4358 18.456 28.4925 21.8956 29.7386 22.2749C30.9847 22.6542 32.9482 19.8295 34.1242 15.9658Z" fill="#312ECB"/>
<path d="M39.6623 21.1844C42.7403 18.5694 44.5519 15.6449 43.7085 14.6523C42.8652 13.6597 39.6864 14.9748 36.6085 17.5896C33.5305 20.2046 31.719 23.1291 32.5623 24.1217C33.4056 25.1144 36.5844 23.7993 39.6623 21.1844Z" fill="#312ECB"/>
<path d="M41.4936 28.5721C45.4967 28.0365 48.6018 26.5558 48.4291 25.2648C48.2564 23.9738 44.8712 23.3614 40.8681 23.8969C36.8651 24.4325 33.7599 25.9132 33.9327 27.2042C34.1054 28.4952 37.4905 29.1076 41.4936 28.5721Z" fill="#312ECB"/>
<path d="M46.6554 36.7466C47.2082 35.5672 44.6916 33.2217 41.0345 31.5078C37.3775 29.7939 33.9648 29.3607 33.4121 30.5401C32.8593 31.7196 35.3759 34.065 39.033 35.7789C42.69 37.4927 46.1027 37.926 46.6554 36.7466Z" fill="#312ECB"/>
<path d="M38.9634 45.4501C40.066 44.7569 39.2172 41.4231 37.0674 38.004C34.9177 34.585 32.281 32.3754 31.1784 33.0686C30.0758 33.7619 30.9246 37.0957 33.0744 40.5147C35.2241 43.9338 37.8608 46.1435 38.9634 45.4501Z" fill="#312ECB"/>
</svg>
