<svg width="56" height="56" viewBox="0 0 56 56" fill="none" xmlns="http://www.w3.org/2000/svg">
<rect width="56" height="56" rx="28" fill="white"/>
<g clip-path="url(#clip0_16955_3508)">
<path d="M28.112 9.00195V28.122L19.7725 19.7801C18.9974 18.9988 18.5601 17.9442 18.5547 16.8435V9.00195H28.112Z" fill="#00CECB"/>
<path d="M47.2387 28.1229H28.1133L36.4637 19.781C36.8528 19.3879 37.3172 19.0774 37.8291 18.8681C38.341 18.6588 38.8899 18.555 39.4429 18.5629H47.2822L47.2387 28.1229Z" fill="#00CECB"/>
<path d="M28.1133 47.2421V28.1221L36.4528 36.4748C36.8463 36.8637 37.157 37.3282 37.3663 37.8403C37.5756 38.3524 37.6791 38.9017 37.6706 39.4549V47.2965L28.1133 47.2421Z" fill="#00CECB"/>
<path d="M9 28.1221H28.1146L19.775 36.464C18.9966 37.2433 17.9407 37.6814 16.8394 37.6821H9V28.1221Z" fill="#00CECB"/>
</g>
<defs>
<clipPath id="clip0_16955_3508">
<rect width="38.24" height="38.24" fill="white" transform="translate(9 9)"/>
</clipPath>
</defs>
</svg>
