<svg width="1084" height="907" viewBox="0 0 1084 907" fill="none" xmlns="http://www.w3.org/2000/svg">
<path fill-rule="evenodd" clip-rule="evenodd" d="M0.100098 250.332C108.5 349.332 239.4 363.632 373.7 347.432C375.6 341.432 378.2 335.632 381.5 330.132C389.5 316.632 400.4 305.932 414.1 298.332C427.8 290.632 442.9 287.032 458.6 287.032C474.3 287.032 489.3 290.732 503.1 298.332C511.6 303.132 519.1 309.132 525.4 316.232H537.5C762.3 262.232 974.5 183.732 1083.3 336.332C857.3 -99.068 362.5 429.132 0.100098 250.332Z" fill="white"/>
<path fill-rule="evenodd" clip-rule="evenodd" d="M721.2 138.732C420.6 30.9319 354.3 250.732 62.2998 242.032C341.8 312.832 446 154.332 721.2 138.732Z" fill="white"/>
<path fill-rule="evenodd" clip-rule="evenodd" d="M132.7 210.532C132.7 210.532 182.8 188.732 193 122.332C209.6 14.1322 338.1 41.6322 317.6 109.632C298.9 172.032 186.3 207.232 132.7 210.532Z" fill="white"/>
<path fill-rule="evenodd" clip-rule="evenodd" d="M325.5 149.432C364 116.932 356.6 87.932 361.9 52.632C372.5 -18.768 465 -12.468 459.1 41.232C453.1 94.132 368 138.832 325.5 149.432Z" fill="white"/>
<path fill-rule="evenodd" clip-rule="evenodd" d="M458.5 444.032C446 444.032 434.5 441.132 424.1 435.332C413.7 429.532 405.4 421.432 399.2 410.932C393.1 400.532 390 388.732 390 375.732C390 362.732 393.1 351.032 399.2 340.632C405.3 330.232 413.6 322.132 424.1 316.332C434.5 310.532 446 307.632 458.5 307.632C471 307.632 482.5 310.532 492.9 316.332C503.3 322.132 511.6 330.232 517.6 340.632C523.6 351.032 526.6 362.732 526.6 375.732C526.6 388.732 523.6 400.532 517.5 410.932C511.4 421.332 503.2 429.532 492.8 435.332C482.5 441.132 471.1 444.032 458.5 444.032ZM458.5 414.432C469.1 414.432 477.6 410.932 484 403.832C490.4 396.732 493.6 387.432 493.6 375.732C493.6 363.932 490.4 354.532 484 347.532C477.6 340.532 469.1 337.032 458.5 337.032C447.7 337.032 439.2 340.532 432.8 347.432C426.4 354.432 423.2 363.832 423.2 375.732C423.2 387.532 426.4 396.932 432.8 403.932C439.2 410.932 447.8 414.432 458.5 414.432ZM609.2 335.732C621.6 335.732 631.5 339.732 638.9 347.732C646.3 355.732 650 366.832 650 380.832V442.732H617.7V385.232C617.7 378.132 615.9 372.632 612.2 368.732C608.5 364.832 603.6 362.832 597.4 362.832C591.2 362.832 586.3 364.832 582.6 368.732C578.9 372.632 577.1 378.132 577.1 385.232V442.732H544.7V336.832H577.1V350.832C580.4 346.132 584.8 342.432 590.4 339.732C596 337.032 602.3 335.732 609.2 335.732ZM808.7 309.532V335.532H773.4V442.732H741V335.532H705.7V309.532H808.7ZM890.1 335.732C902.2 335.732 912 339.732 919.3 347.732C926.6 355.732 930.3 366.832 930.3 380.832V442.732H898V385.232C898 378.132 896.2 372.632 892.5 368.732C888.8 364.832 883.9 362.832 877.7 362.832C871.5 362.832 866.6 364.832 862.9 368.732C859.2 372.632 857.4 378.132 857.4 385.232V442.732H824.9V302.332H857.4V351.132C860.7 346.432 865.2 342.732 870.9 339.932C876.6 337.132 883 335.732 890.1 335.732ZM1052.7 388.032C1052.7 391.032 1052.5 394.232 1052.1 397.532H978.7C979.2 404.132 981.3 409.132 985.1 412.632C988.8 416.132 993.4 417.832 998.9 417.832C1007 417.832 1012.6 414.432 1015.8 407.632H1050.3C1048.5 414.632 1045.3 420.832 1040.7 426.432C1036.1 432.032 1030.3 436.332 1023.3 439.532C1016.3 442.732 1008.6 444.232 1000 444.232C989.6 444.232 980.4 442.032 972.3 437.632C964.2 433.232 957.9 426.832 953.3 418.632C948.7 410.432 946.5 400.832 946.5 389.832C946.5 378.832 948.7 369.232 953.2 361.032C957.7 352.832 964 346.532 972.1 342.032C980.2 337.632 989.5 335.432 1000 335.432C1010.3 335.432 1019.4 337.532 1027.3 341.932C1035.3 346.232 1041.5 352.332 1046 360.332C1050.4 368.132 1052.7 377.432 1052.7 388.032ZM1019.5 379.532C1019.5 373.932 1017.6 369.532 1013.8 366.232C1010 362.932 1005.3 361.332 999.6 361.332C994.2 361.332 989.6 362.932 985.8 366.032C982.1 369.232 979.8 373.732 978.9 379.532H1019.5Z" fill="white"/>
<path fill-rule="evenodd" clip-rule="evenodd" d="M211 409.832V473.032H79.0001V541.332H177.8V602.732H79.0001V733.832H0.100098V409.832H211ZM331.5 409.832V733.932H252.6V409.832H331.5ZM506.1 737.632C480.9 737.632 458.2 732.232 438 721.432C417.8 710.632 402 695.232 390.5 675.232C379 655.232 373.2 631.832 373.2 605.032C373.2 578.532 379 555.232 390.7 535.132C402.4 514.932 418.4 499.532 438.7 488.732C459 477.932 481.8 472.532 507 472.532C532.2 472.532 555 477.932 575.3 488.732C595.6 499.532 611.6 514.932 623.3 535.132C635 555.332 640.8 578.632 640.8 605.032C640.8 631.532 634.9 654.832 623 674.932C611.2 695.132 595 710.532 574.5 721.332C554.1 732.232 531.3 737.632 506.1 737.632ZM506.1 669.332C521.2 669.332 534 663.832 544.6 652.732C555.2 641.632 560.5 625.832 560.5 605.132C560.5 584.532 555.3 568.632 545 557.532C534.7 546.432 522 540.932 506.9 540.932C491.5 540.932 478.7 546.432 468.6 557.332C458.4 568.232 453.4 584.232 453.4 605.132C453.4 625.732 458.4 641.632 468.4 652.732C478.4 663.732 491 669.332 506.1 669.332ZM1052.7 476.332L983 733.932H895.7L855.1 566.832L813.1 733.932H726.3L656.1 476.332H735L771.5 660.532L814.9 476.332H898.5L942.4 659.632L978.4 476.332H1052.7Z" fill="white"/>
<path fill-rule="evenodd" clip-rule="evenodd" d="M53.1 906.332C43.2 906.332 34.3 904.732 26.4 901.532C18.5 898.332 12.2 893.532 7.5 887.232C2.8 880.932 0.3 873.332 0 864.432H35.2C35.7 869.432 37.5 873.332 40.4 875.932C43.4 878.532 47.2 879.932 52 879.932C56.9 879.932 60.8 878.832 63.6 876.532C66.4 874.232 67.9 871.132 67.9 867.132C67.9 863.732 66.8 861.032 64.5 858.832C62.2 856.632 59.5 854.832 56.2 853.432C52.9 852.032 48.2 850.432 42.2 848.632C33.4 845.932 26.3 843.232 20.7 840.532C15.2 837.832 10.4 833.832 6.39999 828.532C2.39999 823.232 0.399994 816.332 0.399994 807.832C0.399994 795.132 4.99998 785.232 14.1 778.132C23.3 770.932 35.2 767.432 49.9 767.432C64.9 767.432 76.9 771.032 86.1 778.132C95.3 785.332 100.2 795.232 100.8 808.032H65C64.7 803.632 63.1 800.232 60.2 797.632C57.2 795.132 53.4 793.832 48.8 793.832C44.8 793.832 41.6 794.932 39.1 797.032C36.7 799.132 35.4 802.232 35.4 806.232C35.4 810.632 37.5 814.032 41.6 816.532C45.7 818.932 52.2 821.632 61 824.432C69.8 827.432 76.9 830.232 82.4 832.932C87.9 835.632 92.6 839.532 96.6 844.732C100.6 849.932 102.6 856.532 102.6 864.632C102.6 872.332 100.6 879.432 96.7 885.732C92.8 892.032 87.1 897.132 79.6 900.832C72.1 904.532 63.3 906.332 53.1 906.332ZM177.4 795.632V823.132H221.8V848.732H177.5V878.532H227.6V905.032H144.3V769.132H227.6V795.632H177.4ZM339.7 905.032L311.4 853.732H303.5V905.032H270.4V769.132H326C336.7 769.132 345.8 771.032 353.4 774.732C360.9 778.432 366.6 783.632 370.3 790.132C374 796.632 375.9 803.932 375.9 811.932C375.9 820.932 373.4 829.032 368.3 836.132C363.2 843.232 355.7 848.232 345.7 851.232L377.1 905.032H339.7ZM303.5 830.332H324C330.1 830.332 334.6 828.832 337.6 825.832C340.6 822.832 342.2 818.632 342.2 813.232C342.2 808.032 340.7 804.032 337.6 801.032C334.6 798.032 330 796.532 324 796.532H303.5V830.332ZM545.5 769.132L497.3 905.032H455.9L407.7 769.132H442.9L476.6 871.732L510.5 769.132H545.5ZM613.7 769.132V905.032H580.6V769.132H613.7ZM653.4 836.832C653.4 823.432 656.3 811.432 662.1 800.932C667.9 790.432 676 782.232 686.4 776.332C696.8 770.432 708.6 767.532 721.7 767.532C737.8 767.532 751.6 771.832 763.1 780.332C774.6 788.832 782.3 800.432 786.1 815.232H749.8C747.1 809.532 743.3 805.232 738.3 802.232C733.3 799.232 727.7 797.732 721.4 797.732C711.2 797.732 702.9 801.232 696.6 808.332C690.3 815.432 687.1 824.932 687.1 836.832C687.1 848.732 690.3 858.232 696.6 865.332C702.9 872.432 711.2 875.932 721.4 875.932C727.7 875.932 733.4 874.432 738.3 871.432C743.3 868.432 747.1 864.132 749.8 858.432H786.2C782.3 873.132 774.6 884.732 763.2 893.132C751.7 901.632 737.9 905.832 721.8 905.832C708.6 905.832 696.9 902.932 686.5 897.032C676.1 891.132 668 883.032 662.2 872.532C656.3 862.232 653.4 850.332 653.4 836.832ZM861 795.632V823.132H905.3V848.732H861V878.532H911.1V905.032H827.8V769.132H911.1V795.632H861ZM1003.1 906.332C993.2 906.332 984.3 904.732 976.4 901.532C968.5 898.332 962.2 893.532 957.5 887.232C952.8 880.932 950.3 873.332 950 864.432H985.2C985.7 869.432 987.5 873.332 990.4 875.932C993.4 878.532 997.2 879.932 1002 879.932C1006.9 879.932 1010.8 878.832 1013.6 876.532C1016.4 874.232 1017.9 871.132 1017.9 867.132C1017.9 863.732 1016.8 861.032 1014.5 858.832C1012.2 856.632 1009.5 854.832 1006.2 853.432C1002.9 852.032 998.2 850.432 992.2 848.632C983.4 845.932 976.3 843.232 970.7 840.532C965.2 837.832 960.4 833.832 956.4 828.532C952.4 823.232 950.4 816.332 950.4 807.832C950.4 795.132 955 785.232 964.1 778.132C973.3 770.932 985.2 767.432 999.9 767.432C1014.9 767.432 1026.9 771.032 1036.1 778.132C1045.3 785.332 1050.2 795.232 1050.8 808.032H1015C1014.7 803.632 1013.1 800.232 1010.2 797.632C1007.2 795.132 1003.4 793.832 998.8 793.832C994.8 793.832 991.6 794.932 989.1 797.032C986.7 799.132 985.4 802.232 985.4 806.232C985.4 810.632 987.5 814.032 991.6 816.532C995.7 818.932 1002.2 821.632 1011 824.432C1019.8 827.432 1026.9 830.232 1032.4 832.932C1037.9 835.632 1042.6 839.532 1046.6 844.732C1050.6 849.932 1052.6 856.532 1052.6 864.632C1052.6 872.332 1050.6 879.432 1046.7 885.732C1042.8 892.032 1037.1 897.132 1029.6 900.832C1022.2 904.532 1013.3 906.332 1003.1 906.332Z" fill="url(#paint0_linear_7_8)"/>
<defs>
<linearGradient id="paint0_linear_7_8" x1="0.5582" y1="836.694" x2="1033.17" y2="836.685" gradientUnits="userSpaceOnUse">
<stop stop-color="#0089CB"/>
<stop offset="1" stop-color="#3AB0E5"/>
</linearGradient>
</defs>
</svg>
