<svg width="1084" height="907" viewBox="0 0 1084 907" fill="none" xmlns="http://www.w3.org/2000/svg">
<path fill-rule="evenodd" clip-rule="evenodd" d="M0 250.432C108.4 349.432 239.3 363.732 373.6 347.532C375.5 341.532 378.1 335.732 381.4 330.232C389.4 316.732 400.3 306.032 414 298.432C427.7 290.732 442.8 287.132 458.5 287.132C474.2 287.132 489.2 290.832 503 298.432C511.5 303.232 519 309.232 525.3 316.332H537.4C762.2 262.332 974.4 183.832 1083.2 336.432C857.2 -99.068 362.5 429.132 0 250.432Z" fill="white"/>
<path fill-rule="evenodd" clip-rule="evenodd" d="M721.2 138.832C420.6 31.0319 354.3 250.832 62.2998 242.132C341.8 312.832 445.9 154.432 721.2 138.832Z" fill="white"/>
<path fill-rule="evenodd" clip-rule="evenodd" d="M132.7 210.532C132.7 210.532 182.8 188.732 193 122.332C209.6 14.1319 338.1 41.6319 317.6 109.632C298.8 172.132 186.3 207.232 132.7 210.532Z" fill="white"/>
<path fill-rule="evenodd" clip-rule="evenodd" d="M325.4 149.432C363.9 116.932 356.5 87.932 361.8 52.632C372.4 -18.768 464.9 -12.468 459 41.232C453.1 94.132 367.9 138.932 325.4 149.432Z" fill="white"/>
<path fill-rule="evenodd" clip-rule="evenodd" d="M458.5 444.032C446 444.032 434.5 441.132 424.1 435.332C413.7 429.532 405.4 421.432 399.2 410.932C393.1 400.532 390 388.732 390 375.732C390 362.732 393.1 351.032 399.2 340.632C405.3 330.232 413.6 322.132 424.1 316.332C434.5 310.532 446 307.632 458.5 307.632C471 307.632 482.5 310.532 492.9 316.332C503.3 322.132 511.6 330.232 517.6 340.632C523.6 351.032 526.6 362.732 526.6 375.732C526.6 388.732 523.6 400.532 517.5 410.932C511.4 421.332 503.2 429.532 492.8 435.332C482.5 441.132 471 444.032 458.5 444.032ZM458.5 414.432C469.1 414.432 477.6 410.932 484 403.832C490.4 396.732 493.6 387.432 493.6 375.732C493.6 363.932 490.4 354.532 484 347.532C477.6 340.532 469.1 337.032 458.5 337.032C447.7 337.032 439.2 340.532 432.8 347.432C426.4 354.432 423.2 363.832 423.2 375.732C423.2 387.532 426.4 396.932 432.8 403.932C439.2 410.932 447.8 414.432 458.5 414.432ZM609.2 335.732C621.6 335.732 631.5 339.732 638.9 347.832C646.3 355.832 650 366.932 650 380.932V442.832H617.7V385.332C617.7 378.232 615.9 372.732 612.2 368.832C608.5 364.932 603.6 362.932 597.4 362.932C591.2 362.932 586.3 364.932 582.6 368.832C578.9 372.732 577.1 378.232 577.1 385.332V442.832H544.7V336.832H577.1V350.832C580.4 346.132 584.8 342.432 590.4 339.732C596 337.132 602.2 335.732 609.2 335.732ZM808.6 309.532V335.532H773.3V442.732H740.9V335.532H705.6V309.532H808.6ZM890 335.732C902.1 335.732 911.9 339.732 919.2 347.832C926.5 355.832 930.2 366.932 930.2 380.932V442.832H897.9V385.332C897.9 378.232 896.1 372.732 892.4 368.832C888.7 364.932 883.8 362.932 877.6 362.932C871.4 362.932 866.5 364.932 862.8 368.832C859.1 372.732 857.3 378.232 857.3 385.332V442.832H824.8V302.332H857.3V351.132C860.6 346.432 865.1 342.732 870.8 339.932C876.6 337.132 882.9 335.732 890 335.732ZM1052.7 388.132C1052.7 391.132 1052.5 394.332 1052.1 397.632H978.7C979.2 404.232 981.3 409.232 985.1 412.732C988.8 416.232 993.4 417.932 998.9 417.932C1007 417.932 1012.6 414.532 1015.8 407.732H1050.3C1048.5 414.732 1045.3 420.932 1040.7 426.532C1036.1 432.132 1030.3 436.432 1023.3 439.632C1016.3 442.832 1008.6 444.332 1000 444.332C989.6 444.332 980.4 442.132 972.3 437.732C964.2 433.332 957.9 426.932 953.3 418.732C948.7 410.532 946.5 400.932 946.5 389.932C946.5 378.932 948.7 369.332 953.2 361.132C957.7 352.932 964 346.632 972.1 342.132C980.2 337.732 989.5 335.532 1000 335.532C1010.3 335.532 1019.4 337.632 1027.3 342.032C1035.3 346.332 1041.5 352.432 1046 360.432C1050.4 368.132 1052.7 377.432 1052.7 388.132ZM1019.4 379.532C1019.4 373.932 1017.5 369.532 1013.7 366.232C1009.9 362.932 1005.2 361.332 999.5 361.332C994.1 361.332 989.5 362.932 985.7 366.032C982 369.232 979.7 373.732 978.8 379.532H1019.4Z" fill="white"/>
<path fill-rule="evenodd" clip-rule="evenodd" d="M211 409.832V473.032H79.0001V541.332H177.8V602.732H79.0001V733.832H0.100098V409.832H211ZM331.5 409.832V733.932H252.6V409.832H331.5ZM506 737.632C480.8 737.632 458.1 732.232 437.9 721.432C417.7 710.632 401.9 695.232 390.4 675.232C378.9 655.232 373.1 631.832 373.1 605.032C373.1 578.532 378.9 555.232 390.6 535.132C402.3 514.932 418.3 499.532 438.6 488.732C458.9 477.932 481.7 472.532 506.9 472.532C532.1 472.532 554.9 477.932 575.2 488.732C595.5 499.532 611.5 514.932 623.2 535.132C634.9 555.332 640.7 578.632 640.7 605.032C640.7 631.532 634.8 654.832 622.9 674.932C611.1 695.132 594.9 710.532 574.4 721.332C554.1 732.232 531.3 737.632 506 737.632ZM506 669.332C521.1 669.332 533.9 663.832 544.5 652.732C555.1 641.632 560.4 625.832 560.4 605.132C560.4 584.532 555.2 568.632 544.9 557.532C534.6 546.432 521.9 540.932 506.8 540.932C491.4 540.932 478.6 546.432 468.5 557.332C458.3 568.232 453.3 584.232 453.3 605.132C453.3 625.732 458.3 641.632 468.3 652.732C478.4 663.732 490.9 669.332 506 669.332ZM1052.7 476.332L983 733.932H895.7L855.1 566.832L813.1 733.932H726.3L656.1 476.332H735L771.5 660.532L814.9 476.332H898.5L942.4 659.632L978.4 476.332H1052.7Z" fill="white"/>
<path fill-rule="evenodd" clip-rule="evenodd" d="M53.1 906.432C43.2 906.432 34.3 904.832 26.4 901.632C18.5 898.432 12.2 893.632 7.5 887.332C2.8 881.032 0.3 873.432 0 864.532H35.2C35.7 869.532 37.5 873.432 40.4 876.032C43.4 878.632 47.2 880.032 52 880.032C56.9 880.032 60.8 878.932 63.6 876.632C66.4 874.332 67.9 871.232 67.9 867.232C67.9 863.832 66.8 861.132 64.5 858.932C62.2 856.732 59.5 854.932 56.2 853.532C52.9 852.132 48.2 850.532 42.2 848.732C33.4 846.032 26.3 843.332 20.7 840.632C15.2 837.932 10.4 833.932 6.40002 828.632C2.40002 823.332 0.400024 816.432 0.400024 807.932C0.400024 795.232 5.00001 785.332 14.1 778.232C23.3 771.032 35.2 767.532 49.9 767.532C64.9 767.532 76.9 771.132 86.1 778.232C95.3 785.432 100.2 795.332 100.8 808.132H65C64.7 803.732 63.1 800.332 60.2 797.732C57.2 795.232 53.4 793.932 48.8 793.932C44.8 793.932 41.6 795.032 39.1 797.132C36.7 799.232 35.4 802.332 35.4 806.332C35.4 810.732 37.5 814.132 41.6 816.632C45.7 819.032 52.2 821.732 61 824.532C69.8 827.532 76.9 830.332 82.4 833.032C87.9 835.732 92.6 839.632 96.6 844.832C100.6 850.032 102.6 856.632 102.6 864.732C102.6 872.432 100.6 879.532 96.7 885.832C92.8 892.132 87.1 897.232 79.6 900.932C72.1 904.532 63.3 906.432 53.1 906.432ZM177.4 795.632V823.132H221.7V848.732H177.4V878.532H227.5V905.032H144.2V769.132H227.5V795.632H177.4ZM339.7 905.032L311.4 853.732H303.5V905.032H270.4V769.132H326C336.7 769.132 345.8 771.032 353.4 774.732C360.9 778.432 366.6 783.632 370.3 790.132C374 796.632 375.9 803.932 375.9 811.932C375.9 820.932 373.4 829.032 368.3 836.132C363.2 843.232 355.7 848.232 345.7 851.232L377.1 905.032H339.7ZM303.5 830.332H324C330.1 830.332 334.6 828.832 337.6 825.932C340.6 822.932 342.2 818.732 342.2 813.332C342.2 808.132 340.7 804.132 337.6 801.132C334.6 798.132 330 796.632 324 796.632H303.5V830.332ZM545.5 769.132L497.3 905.032H455.9L407.7 769.132H442.9L476.6 871.732L510.5 769.132H545.5ZM613.7 769.132V905.032H580.6V769.132H613.7ZM653.4 836.932C653.4 823.532 656.3 811.532 662.1 801.032C667.9 790.532 676 782.332 686.4 776.432C696.8 770.532 708.6 767.632 721.7 767.632C737.8 767.632 751.6 771.932 763.1 780.432C774.6 788.932 782.3 800.532 786.1 815.332H749.7C747 809.632 743.2 805.332 738.2 802.332C733.2 799.332 727.6 797.932 721.3 797.932C711.1 797.932 702.8 801.432 696.5 808.532C690.2 815.632 687 825.132 687 837.032C687 848.932 690.2 858.432 696.5 865.532C702.8 872.632 711.1 876.132 721.3 876.132C727.6 876.132 733.3 874.632 738.2 871.632C743.2 868.632 747 864.332 749.7 858.632H786.1C782.2 873.332 774.5 884.932 763.1 893.332C751.6 901.832 737.8 906.032 721.7 906.032C708.5 906.032 696.8 903.132 686.4 897.232C676 891.332 667.9 883.232 662.1 872.732C656.3 862.232 653.4 850.332 653.4 836.932ZM861 795.632V823.132H905.3V848.732H861V878.532H911.1V905.032H827.8V769.132H911.1V795.632H861ZM1003.1 906.432C993.2 906.432 984.3 904.832 976.4 901.632C968.5 898.432 962.2 893.632 957.5 887.332C952.8 881.032 950.3 873.432 950 864.532H985.2C985.7 869.532 987.5 873.432 990.4 876.032C993.4 878.632 997.2 880.032 1002 880.032C1006.9 880.032 1010.8 878.932 1013.6 876.632C1016.4 874.332 1017.9 871.232 1017.9 867.232C1017.9 863.832 1016.8 861.132 1014.5 858.932C1012.2 856.732 1009.5 854.932 1006.2 853.532C1002.9 852.132 998.2 850.532 992.2 848.732C983.4 846.032 976.3 843.332 970.7 840.632C965.2 837.932 960.4 833.932 956.4 828.632C952.4 823.332 950.4 816.432 950.4 807.932C950.4 795.232 955 785.332 964.1 778.232C973.3 771.032 985.2 767.532 999.9 767.532C1014.9 767.532 1026.9 771.132 1036.1 778.232C1045.3 785.432 1050.2 795.332 1050.8 808.132H1015C1014.7 803.732 1013.1 800.332 1010.2 797.732C1007.2 795.232 1003.4 793.932 998.8 793.932C994.8 793.932 991.6 795.032 989.1 797.132C986.7 799.232 985.4 802.332 985.4 806.332C985.4 810.732 987.5 814.132 991.6 816.632C995.7 819.032 1002.2 821.732 1011 824.532C1019.8 827.532 1026.9 830.332 1032.4 833.032C1037.9 835.732 1042.6 839.632 1046.6 844.832C1050.6 850.032 1052.6 856.632 1052.6 864.732C1052.6 872.432 1050.6 879.532 1046.7 885.832C1042.8 892.132 1037.1 897.232 1029.6 900.932C1022.1 904.532 1013.3 906.432 1003.1 906.432Z" fill="#FF7A24"/>
</svg>
