<svg width="120" height="120" viewBox="0 0 120 120" fill="none" xmlns="http://www.w3.org/2000/svg">
<path fill-rule="evenodd" clip-rule="evenodd" d="M101.134 101.134C111.677 90.6181 118.197 76.0518 118.197 59.987C118.197 43.9223 111.677 29.3837 101.134 18.8405C90.6181 8.32492 76.0795 1.80469 60.0148 1.80469C43.9223 1.80469 29.3837 8.32492 18.8682 18.8405C8.32491 29.3837 1.80469 43.9223 1.80469 59.987C1.80469 76.0518 8.32491 90.6181 18.8682 101.134C29.3837 111.677 43.9223 118.169 60.0148 118.169C76.0792 118.169 90.6181 111.677 101.134 101.134Z" fill="white"/>
<path d="M58.6543 8.71274V5.68848H61.3457V8.71274C62.8439 8.74045 64.3423 8.85158 65.8127 9.01787L66.229 6.04903L68.8924 6.40982L68.4762 9.37867C69.9743 9.62836 71.4173 9.93375 72.86 10.322L73.6925 7.43657L76.2728 8.18565L75.4683 11.0711C76.8833 11.5151 78.2983 12.0144 79.6579 12.597L80.8787 9.8501L83.3481 10.96L82.1274 13.6791C83.4592 14.3451 84.7908 15.0387 86.0673 15.7878L87.6488 13.2352L89.9517 14.6779L88.3425 17.2305C89.5909 18.0627 90.8119 18.9229 91.9772 19.8663L93.9194 17.5634L95.9726 19.2835L94.0305 21.6141C94.8073 22.28 95.5566 23.0014 96.2779 23.7228C96.6108 24.0556 96.9162 24.361 97.249 24.7215L99.4965 22.6683L101.3 24.6938L99.0525 26.7193C100.024 27.8569 100.939 29.0222 101.799 30.243L104.324 28.5506L105.822 30.7703L103.298 32.4628C104.102 33.7389 104.851 35.0154 105.545 36.3472L108.264 35.0154L109.457 37.4291L106.71 38.761C107.349 40.1206 107.903 41.5079 108.403 42.9229L111.288 41.9795L112.12 44.5321L109.235 45.4755C109.651 46.8905 109.984 48.3609 110.289 49.8039L113.314 49.2768L113.758 51.9403L110.761 52.4674C110.983 53.9378 111.122 55.4085 111.205 56.9067L114.285 56.8235L114.368 59.5149L111.288 59.6258C111.288 59.7367 111.316 59.8755 111.316 59.9866C111.316 61.3739 111.261 62.7335 111.149 64.0651L114.201 64.3979L113.924 67.0891L110.872 66.7563C110.65 68.2544 110.4 69.6974 110.095 71.1401L113.064 71.8892L112.426 74.525L109.429 73.7759C109.041 75.2186 108.569 76.6336 108.042 78.0209L110.9 79.1585L109.901 81.6834L107.043 80.5181C106.433 81.8777 105.767 83.2095 105.073 84.5134L107.737 86.0673L106.405 88.3979L103.713 86.844C102.937 88.1205 102.104 89.3412 101.216 90.5343L103.658 92.4487L102.021 94.585L99.5514 92.6706C98.6081 93.8082 97.6093 94.9181 96.5549 95.9723L98.7467 98.2198L96.7766 100.106L94.6125 97.859C93.5303 98.8578 92.3927 99.8011 91.1997 100.717L93.0587 103.242L90.8669 104.823L89.0356 102.298C87.8149 103.131 86.5384 103.935 85.2346 104.657L86.705 107.431L84.3189 108.68L82.8485 105.933C81.5443 106.599 80.185 107.182 78.7977 107.737L79.8522 110.678L77.3273 111.594L76.2451 108.652C74.8578 109.124 73.4151 109.54 71.9724 109.873L72.6106 112.953L69.9748 113.508L69.3366 110.456C67.8939 110.706 66.4235 110.928 64.9251 111.066L65.147 114.202L62.4556 114.368L62.2336 111.233C61.4845 111.261 60.7355 111.288 60.0139 111.288C59.2648 111.288 58.5157 111.261 57.7664 111.233L57.5444 114.368L54.853 114.202L55.0749 111.066C53.6045 110.928 52.1338 110.706 50.6634 110.456L50.0252 113.508L47.3894 112.953L48.0276 109.873C46.5849 109.54 45.1422 109.124 43.7549 108.652L42.6727 111.594L40.1478 110.678L41.2023 107.737C39.815 107.182 38.4554 106.599 37.1515 105.933L35.6811 108.68L33.295 107.432L34.7654 104.657C33.4613 103.936 32.2128 103.131 30.9921 102.299L29.1331 104.824L26.969 103.242L28.8003 100.717C27.6073 99.8016 26.4697 98.8582 25.3875 97.8595L23.2234 100.107L21.2813 98.2203L23.4454 95.9728C22.3909 94.9186 21.3922 93.8087 20.4488 92.6711L18.0073 94.5855L16.3426 92.4491L18.7841 90.5348C17.8962 89.3417 17.064 88.121 16.2869 86.8445L13.5958 88.3984L12.2639 86.0677L14.9274 84.5139C14.2337 83.21 13.5678 81.8782 12.9853 80.5186L10.0998 81.6839L9.10104 79.159L11.9588 78.0214C11.4317 76.6341 10.9877 75.2191 10.5715 73.7764L7.57492 74.5255L6.93671 71.8897L9.93327 71.1406C9.60043 69.6979 9.35073 68.2552 9.15647 66.7568L6.07677 67.0896L5.79936 64.3984L8.85135 64.0656C8.7682 62.7337 8.71252 61.3741 8.71252 59.9871C8.71252 59.8762 8.71252 59.7374 8.71252 59.6263L5.63281 59.5154L5.71596 56.824L8.79567 56.9072C8.87881 55.409 9.04536 53.9383 9.23962 52.4679L6.24306 51.9408L6.71473 49.2773L9.71129 49.8044C10.0164 48.3617 10.3772 46.891 10.7935 45.476L7.88029 44.5326L8.71277 41.98L11.6262 42.9234C12.0978 41.5084 12.6804 40.1211 13.2909 38.7615L10.544 37.4296L11.737 35.0159L14.4562 36.3477C15.1498 35.0159 15.8989 33.7397 16.7037 32.4632L14.1788 30.7708L15.7047 28.5511L18.2018 30.2435C19.062 29.0227 20.0054 27.8574 20.9487 26.7198L18.7012 24.6943L20.5047 22.6688L22.7522 24.722C23.0851 24.3612 23.3904 24.0561 23.7233 23.7233C24.4447 23.0019 25.1937 22.2805 25.9708 21.6146L24.0287 19.284L26.1096 17.5638L28.0517 19.8668C29.1893 18.9234 30.4101 18.0632 31.6585 17.231L30.0492 14.6784L32.3522 13.2357L33.9337 15.7883C35.2099 15.0392 36.5418 14.3456 37.8736 13.6796L36.6529 10.9605L39.1223 9.85059L40.3431 12.5975C41.7304 12.0149 43.1177 11.5153 44.5604 11.0716L43.7279 8.18613L46.3082 7.43706L47.1407 10.3225C48.5834 9.93399 50.0261 9.62888 51.5246 9.37918L51.1083 6.41034L53.7718 6.04951L54.188 9.01836C55.6577 8.85157 57.1559 8.7407 58.6543 8.71274ZM94.3628 25.6377C85.5674 16.8425 73.4149 11.4042 60.0139 11.4042C46.5851 11.4042 34.4326 16.8422 25.6372 25.6377C16.8418 34.4331 11.4037 46.5579 11.4037 59.9866C11.4037 73.4153 16.8418 85.5681 25.6372 94.3633C34.4326 103.159 46.5851 108.597 60.0139 108.597C73.4149 108.597 85.5674 103.159 94.3628 94.3633C103.158 85.5679 108.596 73.4153 108.596 59.9866C108.596 46.5576 103.158 34.4328 94.3628 25.6377Z" fill="#1774D3"/>
<path d="M62.5386 13.1798C61.3733 13.0967 60.2357 13.0967 59.0704 13.0967V13.7903C60.2357 13.7626 61.3456 13.7903 62.4832 13.8458L62.5386 13.1798L59.0704 13.0967C58.6264 13.1244 58.1824 13.1244 57.7108 13.1521L57.7662 13.8458C58.2102 13.818 58.6264 13.8181 59.0704 13.7903L62.5386 13.1798ZM55.6576 13.291C54.4922 13.4018 53.3546 13.5406 52.217 13.7349L52.3279 14.4285C53.4378 14.2343 54.6031 14.0957 55.7127 13.9846L55.6576 13.291ZM50.1918 14.1234C49.0542 14.3731 47.9443 14.6505 46.8347 14.9836L47.0289 15.6495C48.1111 15.3167 49.2207 15.0391 50.3306 14.7894L50.1918 14.1234ZM44.8369 15.5938C43.7547 15.9824 42.6728 16.3984 41.6183 16.8423L41.8958 17.4805C42.9222 17.0366 44.0044 16.6203 45.0589 16.2598L44.8369 15.5938ZM39.7317 17.7025C38.6772 18.2019 37.6784 18.729 36.6797 19.3118L37.0128 19.8943C38.0115 19.3395 39.0103 18.8121 40.037 18.3128L39.7317 17.7025ZM34.9039 20.3937C33.9328 21.0039 32.9617 21.6422 32.0461 22.3358L32.4624 22.8906C33.378 22.197 34.2936 21.5588 35.2647 20.9485L34.9039 20.3937ZM30.4091 23.6122C29.5212 24.3336 28.6613 25.1104 27.8011 25.8874L28.2728 26.3868C29.1052 25.61 29.9652 24.8607 30.8531 24.1393L30.4091 23.6122ZM26.3304 27.3579C25.5259 28.1901 24.7489 29.0503 24.0275 29.9382L24.5546 30.3545C25.276 29.4943 26.025 28.662 26.8298 27.8295L26.3304 27.3579ZM22.7236 31.5475C22.03 32.4631 21.364 33.4064 20.7258 34.3775L21.3083 34.738C21.9188 33.7947 22.5848 32.8514 23.2782 31.9635L22.7236 31.5475ZM19.6162 36.1256C19.0337 37.1243 18.4786 38.1234 17.9792 39.1776L18.5897 39.4827C19.0891 38.4562 19.6439 37.4572 20.2267 36.4861L19.6162 36.1256ZM17.0913 41.0365C16.6196 42.1187 16.2034 43.1729 15.8151 44.2551L16.4533 44.477C16.8418 43.4228 17.2581 42.3684 17.7298 41.3142L17.0913 41.0365ZM15.1492 46.2249C14.8163 47.3348 14.5387 48.4446 14.2613 49.582L14.9549 49.7208C15.2046 48.611 15.482 47.529 15.8151 46.4191L15.1492 46.2249ZM13.845 51.6075C13.6508 52.7451 13.4842 53.8827 13.3734 55.0203L14.0393 55.1035C14.1781 53.9659 14.3444 52.856 14.5387 51.7186L13.845 51.6075ZM13.2068 57.101C13.1237 58.2663 13.096 59.4039 13.1237 60.5415H13.7896C13.7896 59.4039 13.8173 58.2663 13.8728 57.129L13.2068 57.101ZM13.1791 62.6225C13.2345 63.7878 13.3457 64.9254 13.5119 66.063L14.1779 65.9798C14.039 64.8699 13.9282 63.7046 13.8728 62.595L13.1791 62.6225ZM13.8173 68.1162C14.0116 69.2538 14.2613 70.3914 14.5387 71.5013L15.2046 71.3347C14.9272 70.2248 14.6775 69.1152 14.4833 68.0053L13.8173 68.1162ZM15.0935 73.4988C15.4263 74.6087 15.7871 75.7186 16.2034 76.7728L16.8416 76.5231C16.4254 75.4687 16.0648 74.3867 15.7317 73.3046L15.0935 73.4988ZM16.9802 78.6872C17.4518 79.7693 17.9512 80.7958 18.4783 81.8223L19.0888 81.4895C18.5617 80.4907 18.0623 79.464 17.6184 78.4098L16.9802 78.6872ZM19.5051 83.6258C20.0599 84.6246 20.6981 85.5957 21.364 86.539L21.9188 86.1505C21.2806 85.2349 20.6704 84.2638 20.0876 83.2927L19.5051 83.6258ZM22.5571 88.2317C23.2507 89.1473 23.9998 90.0352 24.7489 90.9231L25.276 90.4514C24.5269 89.5913 23.8055 88.7313 23.1119 87.8157L22.5571 88.2317ZM26.1641 92.449C26.9409 93.2815 27.7734 94.086 28.6336 94.8351L29.1052 94.3357C28.2451 93.5866 27.4405 92.7818 26.6358 91.9773L26.1641 92.449ZM30.2149 96.1946C31.1028 96.9437 32.0184 97.6373 32.9618 98.3033L33.3503 97.7485C32.4347 97.0825 31.519 96.3889 30.6311 95.6675L30.2149 96.1946ZM34.6819 99.4686C35.6529 100.079 36.6517 100.662 37.6507 101.216L37.9836 100.606C36.9848 100.079 36.0137 99.496 35.0424 98.8858L34.6819 99.4686ZM39.5097 102.16C40.5362 102.687 41.5906 103.159 42.6728 103.575L42.9225 102.937C41.868 102.52 40.8138 102.049 39.7873 101.549L39.5097 102.16ZM44.6149 104.296C45.6971 104.685 46.8067 105.018 47.9166 105.295L48.0831 104.657C47.001 104.352 45.8913 104.019 44.8369 103.658L44.6149 104.296ZM49.9421 105.795C51.052 106.044 52.1896 106.238 53.3272 106.405L53.438 105.739C52.3004 105.573 51.1906 105.378 50.0809 105.129L49.9421 105.795ZM55.3801 106.655C56.5455 106.766 57.6831 106.849 58.8484 106.877V106.183C57.7385 106.155 56.5732 106.072 55.4635 105.989L55.3801 106.655ZM60.9293 106.877L60.9016 106.183C62.0392 106.155 63.1768 106.1 64.3144 105.989L64.3698 106.682C63.232 106.793 62.0667 106.849 60.9293 106.877ZM66.4228 106.433C67.5604 106.294 68.7257 106.1 69.8356 105.85L69.6968 105.184C68.5869 105.406 67.4493 105.601 66.3397 105.767L66.4228 106.433ZM71.8609 105.378C72.9707 105.073 74.0804 104.74 75.1625 104.38L74.9406 103.714C73.8861 104.102 72.7765 104.407 71.6943 104.712L71.8609 105.378ZM77.1326 103.658C78.1868 103.242 79.2413 102.77 80.2957 102.271L79.9906 101.66C78.9641 102.16 77.9374 102.604 76.8555 103.02L77.1326 103.658ZM82.1267 101.328C83.1532 100.8 84.1522 100.218 85.1233 99.5797L84.7625 99.0249C83.7914 99.6074 82.8204 100.218 81.8214 100.745L82.1267 101.328ZM86.8437 98.4418C87.787 97.7759 88.7026 97.0823 89.6182 96.3609L89.1743 95.8338C88.2864 96.5552 87.3985 97.2211 86.4551 97.887L86.8437 98.4418ZM91.1995 95.0016C92.0597 94.2248 92.892 93.4478 93.6967 92.6155L93.1973 92.1439C92.3928 92.9484 91.5881 93.7531 90.7279 94.5022L91.1995 95.0016ZM95.084 91.0894C95.8608 90.2292 96.5822 89.3415 97.3038 88.4259L96.749 88.0097C96.0553 88.8976 95.334 89.7855 94.5849 90.6455L95.084 91.0894ZM98.5245 86.7333C99.1627 85.7899 99.801 84.8189 100.383 83.8478L99.801 83.487C99.2184 84.4581 98.6079 85.4291 97.942 86.3447L98.5245 86.7333ZM101.41 82.0166C101.937 81.0178 102.464 79.9633 102.908 78.9091L102.298 78.6317C101.826 79.6859 101.327 80.7127 100.799 81.7114L101.41 82.0166ZM103.713 76.9947C104.129 75.9403 104.517 74.8307 104.85 73.7485L104.185 73.5265C103.852 74.6364 103.491 75.6906 103.075 76.7451L103.713 76.9947ZM105.405 71.7507C105.71 70.6131 105.932 69.5032 106.154 68.3659L105.461 68.227C105.266 69.3646 105.017 70.4746 104.739 71.5565L105.405 71.7507ZM106.46 66.3126C106.626 65.1751 106.737 64.0098 106.821 62.8722L106.127 62.8167C106.044 63.9543 105.933 65.0919 105.794 66.2295L106.46 66.3126ZM106.876 60.7912C106.903 59.6259 106.876 58.4883 106.82 57.3507L106.127 57.3784C106.182 58.516 106.21 59.6536 106.21 60.791L106.876 60.7912ZM106.654 55.27C106.543 54.1324 106.376 52.9671 106.182 51.8295L105.516 51.9683C105.71 53.0782 105.849 54.2158 105.96 55.3254L106.654 55.27ZM105.794 49.804C105.544 48.6941 105.239 47.5565 104.906 46.4469L104.24 46.6688C104.573 47.7508 104.878 48.8606 105.1 49.9705L105.794 49.804ZM104.268 44.4768C103.879 43.3949 103.463 42.3127 103.019 41.2583L102.381 41.5357C102.825 42.5901 103.241 43.6443 103.629 44.7265L104.268 44.4768ZM102.131 39.3718C101.632 38.3453 101.077 37.3463 100.494 36.3476L99.9116 36.6804C100.466 37.6792 101.021 38.6782 101.521 39.677L102.131 39.3718ZM99.4122 34.5717C98.774 33.6007 98.136 32.6573 97.4424 31.7417L96.8876 32.158C97.5812 33.0459 98.2194 33.9892 98.8297 34.9326L99.4122 34.5717ZM96.1382 30.1048C95.4168 29.2169 94.6401 28.3569 93.8353 27.5244L93.3359 27.9961C94.1127 28.8006 94.9175 29.6885 95.6111 30.5487L96.1382 30.1048ZM92.3649 26.054C91.5326 25.2772 90.6724 24.5001 89.7845 23.7788L89.3406 24.3059C90.2285 25.0273 91.0884 25.7763 91.8932 26.5534L92.3649 26.054ZM88.1476 22.4746C87.2319 21.781 86.2886 21.1428 85.3175 20.5046L84.9567 21.0871C85.9001 21.6976 86.8434 22.3633 87.7313 23.0292L88.1476 22.4746ZM83.5417 19.4227C82.543 18.8401 81.5162 18.3128 80.4897 17.8134L80.1846 18.4239C81.2111 18.9233 82.2101 19.4504 83.2089 20.0331L83.5417 19.4227ZM78.6031 16.9255C77.5486 16.4815 76.4667 16.0653 75.3845 15.677L75.1625 16.3429C76.2447 16.7037 77.2989 17.1197 78.3256 17.5637L78.6031 16.9255ZM73.4147 15.0388C72.3048 14.706 71.1952 14.4283 70.0576 14.1786L69.9187 14.8445C71.0286 15.0942 72.1106 15.3716 73.2204 15.7047L73.4147 15.0388ZM68.0321 13.7903C66.8945 13.5961 65.7569 13.4298 64.5916 13.3187L64.5361 14.0123C65.6737 14.1232 66.7836 14.262 67.8932 14.4563L68.0321 13.7903Z" fill="#1774D3"/>
<path d="M60.0139 0.000976562C68.1156 0.000976562 75.8843 1.61026 82.9316 4.52342C90.2843 7.57542 96.8877 12.0424 102.437 17.5639C107.958 23.0853 112.425 29.7164 115.45 37.0411C118.391 44.1162 120 51.8571 120 59.9866C120 68.1161 118.391 75.8571 115.45 82.9321C112.425 90.2846 107.958 96.8882 102.437 102.409C96.8877 107.959 90.2843 112.398 82.9316 115.45C75.8843 118.363 68.1156 120 60.0139 120C51.8844 120 44.1157 118.363 37.0684 115.45C29.7157 112.398 23.1123 107.959 17.5631 102.409C12.0417 96.8879 7.60239 90.2846 4.5504 82.9321C1.60927 75.8571 0 68.1159 0 59.9866C0 51.8571 1.60927 44.1162 4.5504 37.0411C7.60239 29.7161 12.0417 23.0851 17.5631 17.5639C23.1123 12.0424 29.7157 7.57542 37.0684 4.52342C44.1157 1.61026 51.8844 0.000976562 60.0139 0.000976562ZM100.855 19.1454C95.5281 13.8182 89.1467 9.54549 82.0994 6.60436C75.3018 3.80206 67.8382 2.2205 60.0139 2.2205C52.1895 2.2205 44.7262 3.80206 37.9006 6.60436C30.8533 9.54549 24.4996 13.8182 19.1724 19.1454C13.8452 24.4726 9.54475 30.8263 6.63133 37.9013C3.80132 44.699 2.24748 52.1625 2.24748 59.9869C2.24748 67.8112 3.80132 75.2746 6.63133 82.0724C9.5445 89.1475 13.8452 95.5014 19.1724 100.828C29.6048 111.288 44.06 117.753 60.0139 117.753C67.8382 117.753 75.3018 116.199 82.0994 113.369C89.1467 110.456 95.5281 106.155 100.855 100.828C106.155 95.5009 110.455 89.1472 113.396 82.0722C116.199 75.2746 117.753 67.811 117.753 59.9866C117.753 52.1623 116.199 44.6989 113.396 37.9011C110.455 30.8263 106.182 24.4726 100.855 19.1454Z" fill="#1774D3"/>
<path fill-rule="evenodd" clip-rule="evenodd" d="M84.2908 84.2917C90.5059 78.0766 94.3624 69.4757 94.3624 59.9866C94.3624 50.4976 90.5059 41.9244 84.2908 35.6816C78.0757 29.4665 69.5025 25.6377 60.0134 25.6377C50.5243 25.6377 41.9234 29.4665 35.7083 35.6816C29.4932 41.9244 25.6367 50.4976 25.6367 59.9866C25.6367 69.4757 29.4932 78.0769 35.7083 84.2917C41.9234 90.5068 50.5243 94.3633 60.0134 94.3633C69.5022 94.3633 78.0757 90.5066 84.2908 84.2917Z" fill="#1774D3"/>
<path fill-rule="evenodd" clip-rule="evenodd" d="M40.2598 56.5466V72.9441C40.2598 73.0273 40.2875 73.1107 40.3429 73.1661C40.3983 73.2215 40.4817 73.2493 40.5649 73.2493H51.3578C51.441 73.2493 51.5244 73.2215 51.5521 73.1661C51.6075 73.1107 51.663 73.0273 51.663 72.9441V70.4747V57.1568V56.5463C51.663 56.4632 51.6353 56.3798 51.5798 56.3244H51.5521C51.5244 56.2689 51.4412 56.2412 51.3578 56.2412H40.5649C40.4817 56.2412 40.3983 56.2689 40.3429 56.3244C40.2875 56.3803 40.2598 56.4634 40.2598 56.5466Z" fill="white"/>
<path fill-rule="evenodd" clip-rule="evenodd" d="M53.7441 57.1572V70.4751C53.7441 70.5305 53.7441 70.5582 53.7719 70.5859C53.7996 70.6414 53.8273 70.6691 53.855 70.697L56.463 71.9732C56.4908 72.0009 56.4908 72.0009 56.5185 72.0009C56.5185 72.0009 56.5462 72.0009 56.5739 72.0009H75.0524C75.5795 72.0009 76.1069 71.779 76.5228 71.3905C76.8836 71.0853 77.1054 70.6691 77.1054 70.1974C77.1054 69.8646 77.0777 69.6149 77.0222 69.3929C76.9391 69.0878 76.828 68.8658 76.7448 68.727C76.5228 68.3941 76.4674 68.0333 76.5506 67.6725C76.6337 67.312 76.828 66.9789 77.1611 66.7569C77.4107 66.5904 77.7159 66.3129 77.9101 65.9524C78.0767 65.7027 78.1598 65.3976 78.1598 65.1202C78.1598 64.8427 78.1321 64.6208 78.0487 64.4542C77.9656 64.2045 77.8545 64.038 77.7713 63.9548L77.7436 63.9271L77.7159 63.8994C77.5216 63.622 77.4108 63.2889 77.4662 62.9838C77.4939 62.6509 77.6327 62.3456 77.8824 62.1236L77.9101 62.0959L77.9378 62.0682C78.1321 61.9293 78.4649 61.6242 78.6869 61.2359C78.7978 61.014 78.8812 60.7643 78.8812 60.4869C78.8812 60.2094 78.8258 59.9598 78.7424 59.7655C78.6312 59.5713 78.4927 59.4327 78.3816 59.2938C78.2707 59.183 78.1873 59.0719 78.1041 58.9333C77.9653 58.6559 77.9376 58.3507 77.9653 58.0731C78.0207 57.7957 78.1319 57.5183 78.3538 57.2963C78.4647 57.1854 78.5758 57.102 78.7424 57.0189C78.9643 56.908 79.2695 56.686 79.4914 56.3252C79.658 56.0478 79.7411 55.687 79.7411 55.1876C79.7411 55.0488 79.7411 54.9379 79.7411 54.8268C79.7134 54.716 79.7134 54.6048 79.6857 54.5217C79.6025 54.1611 79.4083 53.8558 79.1309 53.6338C78.8258 53.3841 78.465 53.273 78.0764 53.273H67.4223C67.3669 53.273 67.2835 53.2453 67.228 53.2453C66.9229 53.1898 66.6732 53.0233 66.479 52.8013C66.2847 52.5794 66.1738 52.3019 66.1738 51.9966C66.1738 51.9411 66.1738 51.858 66.2015 51.8023L67.256 45.6706C67.2837 45.3932 67.3114 45.1435 67.3114 44.8938C67.3114 44.6164 67.256 44.3667 67.2003 44.117C66.9229 42.9517 66.5344 41.9252 66.1459 41.0927C65.7573 40.288 65.3968 39.6777 65.2025 39.3449L65.1748 39.3172C65.1748 39.3172 65.1471 39.2895 65.1194 39.2895C64.5646 38.9843 64.0649 38.9009 63.6212 38.9289C63.0384 38.9843 62.5668 39.234 62.2339 39.5114C62.1231 39.5669 62.0674 39.6503 62.012 39.7611C61.9565 39.8443 61.9288 39.9554 61.9288 40.0663V45.31C61.9288 45.3932 61.9288 45.4766 61.9011 45.6152C61.9011 45.726 61.8734 45.8372 61.8457 45.948C61.4571 47.2242 60.6526 48.6949 59.737 50.1099C58.1555 52.5791 56.1856 54.91 55.7694 55.4371C55.714 55.4925 55.6585 55.5482 55.6029 55.6036C55.5197 55.659 55.464 55.7145 55.4086 55.7702L53.827 56.9909C53.7993 57.0186 53.7716 57.0463 53.7716 57.0741C53.7441 57.1015 53.7441 57.1295 53.7441 57.1572Z" fill="white"/>
<path d="M22.1687 45.004C22.1133 44.5324 21.8359 44.2272 21.4473 44.0884C20.8091 43.8941 20.1432 44.2827 19.7549 45.448L19.0059 47.6955L23.2509 49.1105L24.0556 46.7244C24.4442 45.5591 24.2222 44.81 23.4731 44.5603C22.9732 44.3935 22.5016 44.5601 22.1687 45.004ZM20.698 45.9751C20.8091 45.6422 20.9754 45.5311 21.1697 45.6145C21.364 45.67 21.4471 45.8642 21.3362 46.1693L21.1143 46.8353L20.476 46.641L20.698 45.9751ZM23.0009 46.5299L22.7235 47.3901L22.0576 47.1681L22.335 46.3079C22.4461 45.9751 22.6124 45.864 22.8344 45.9474C23.0564 46.0028 23.1121 46.1971 23.0009 46.5299ZM24.7213 42.3403L24.1942 42.0629L25.0264 40.3705L24.0554 39.8988L23.2229 41.5912L22.7512 41.3415L23.7223 39.4272L22.6958 38.9278L21.0865 42.174L25.0819 44.1718L26.7189 40.8424L25.7201 40.343L24.7213 42.3403ZM28.3004 38.7058C29.0495 37.5405 28.8829 36.5972 28.1893 36.1532C26.8297 35.2376 25.831 37.5405 25.387 37.2354C25.2482 37.1522 25.2205 36.9579 25.4701 36.5971C25.6921 36.2643 25.9972 35.9866 26.4412 35.7369L25.7753 34.7659C25.3036 35.0156 24.8596 35.4595 24.5268 35.9589C23.75 37.0965 23.9163 38.0676 24.61 38.5115C25.9973 39.4272 26.996 37.1242 27.4677 37.4294C27.5785 37.5405 27.5785 37.7068 27.3289 38.0676C27.0792 38.4561 26.6352 38.8444 26.1913 39.0664L26.8295 40.0651C27.3016 39.8434 27.8842 39.316 28.3004 38.7058ZM30.4645 35.6261L31.4356 34.4885L28.9384 32.3244L29.7706 31.3534L28.8827 30.5765L26.219 33.7119L27.1069 34.4887L27.9671 33.49L30.4645 35.6261ZM33.0171 26.803L31.3524 28.1902L34.2101 31.6308L35.3755 30.6597L34.6818 29.7995L35.1535 29.411C36.1245 28.6062 36.3188 27.6075 35.6529 26.803C34.9872 25.9982 33.9604 26.0259 33.0171 26.803ZM34.349 28.5785L33.9327 28.9114L33.2668 28.1068L33.683 27.774C33.9882 27.4966 34.2656 27.5243 34.4878 27.774C34.6818 28.0237 34.6541 28.3011 34.349 28.5785ZM40.5361 27.0526L41.8957 26.1924L40.3696 25.5265C40.6747 24.9994 40.6747 24.4443 40.3418 23.8895C39.787 23.0016 38.7603 22.8908 37.7061 23.5287L35.9025 24.694L38.2609 28.4674L39.5373 27.6629L38.9548 26.7196L39.2876 26.4976L40.5361 27.0526ZM39.0379 24.6943C39.2322 24.9717 39.1491 25.2491 38.816 25.4711L38.3443 25.7485L37.7895 24.8606L38.2612 24.5832C38.594 24.3612 38.8714 24.4169 39.0379 24.6943ZM44.7811 25.0271C46.113 24.4723 46.7232 23.1404 46.1961 21.892C45.669 20.6435 44.3095 20.1441 42.9776 20.7267C41.618 21.2815 41.0355 22.6134 41.5349 23.8618C42.0622 25.1103 43.4218 25.5822 44.7811 25.0271ZM44.3095 23.9173C43.7824 24.1115 43.2273 23.9173 42.9499 23.2513C42.6725 22.6131 42.9222 22.0583 43.4493 21.8363C43.9486 21.6421 44.5314 21.8363 44.7811 22.4745C45.0588 23.1404 44.8091 23.6953 44.3095 23.9173ZM47.9165 23.5844L50.0529 23.0296C51.4956 22.6411 52.2724 21.5591 51.9118 20.2273C51.5513 18.8954 50.358 18.3406 48.9153 18.7014L46.7789 19.284L47.9165 23.5844ZM49.0818 22.0863L48.527 20.033L49.1375 19.8665C49.748 19.6999 50.2751 19.9496 50.4414 20.6156C50.6357 21.2815 50.3028 21.7532 49.6923 21.9197L49.0818 22.0863ZM55.5743 22.114C56.9339 21.9751 57.6553 21.1152 57.5164 19.7833L57.239 17.3416L55.7686 17.5081L56.0183 19.8942C56.1014 20.5601 55.8795 20.8652 55.4635 20.893C55.0195 20.9484 54.7421 20.7264 54.6587 20.0328L54.409 17.6467L52.9109 17.8133L53.1883 20.2547C53.3268 21.5866 54.2148 22.2525 55.5743 22.114ZM61.0401 21.8643C61.928 21.8643 62.6217 21.5314 63.0379 20.9487L62.0946 20.1164C61.8449 20.4493 61.512 20.6435 61.1235 20.6435C60.4853 20.6435 60.069 20.1996 60.069 19.5336C60.069 18.84 60.4853 18.4238 61.1235 18.396C61.512 18.396 61.8171 18.5903 62.0946 18.9232L63.0379 18.063C62.5939 17.5081 61.9003 17.1751 61.0401 17.2028C59.5974 17.2028 58.5429 18.1738 58.5429 19.5334C58.5429 20.9209 59.5974 21.8643 61.0401 21.8643ZM64.758 22.0029L66.2562 22.2248L66.7001 18.9509L68.0043 19.1174L68.1708 17.9798L64.0923 17.425L63.9258 18.5626L65.2299 18.7569L64.758 22.0029ZM75.0239 22.3082L74.0251 21.6146C73.942 21.8088 73.8309 21.9754 73.6923 22.1417L73.3594 21.6146C73.942 21.4758 74.3028 21.2261 74.4416 20.8101C74.6359 20.1442 74.2196 19.5339 73.3594 19.2842C72.4438 18.9791 71.6947 19.2565 71.4728 19.9224C71.3896 20.2275 71.4173 20.5329 71.5836 20.8657C70.9177 21.0046 70.5292 21.3097 70.3629 21.8368C70.1409 22.5305 70.7237 23.3073 71.7502 23.6403C72.2773 23.8069 72.8044 23.8069 73.304 23.6681L73.6091 24.1951L74.6079 23.6126L74.3305 23.141C74.6076 22.9185 74.8296 22.6411 75.0239 22.3082ZM73.0818 20.1716C73.2483 20.2271 73.3038 20.3382 73.276 20.449C73.2483 20.5879 73.1095 20.671 72.8321 20.7264C72.6932 20.5044 72.6932 20.4213 72.7212 20.3102C72.7487 20.1716 72.8875 20.0885 73.0818 20.1716ZM72.1661 22.6411C71.8333 22.5302 71.6945 22.3082 71.7499 22.114C71.8053 21.9474 71.9165 21.8366 72.1105 21.7811L72.693 22.6967C72.499 22.6965 72.3324 22.6965 72.1661 22.6411ZM80.9059 27.6074C80.6562 27.6906 80.4342 27.6629 80.24 27.552C80.1011 27.4689 80.018 27.3855 79.9626 27.1912C80.9059 27.3021 81.7938 26.9138 82.2655 26.0536C82.9314 24.8606 82.4874 23.4733 81.239 22.7797C79.9626 22.0583 78.5475 22.3911 77.8819 23.5564C77.327 24.5552 77.549 25.7205 78.409 26.4696C78.6864 27.6072 78.9915 28.0512 79.6851 28.4397C80.1568 28.7171 80.6562 28.7725 81.1002 28.6062L80.9059 27.6074ZM80.6285 23.8341C81.1001 24.1115 81.2944 24.6943 80.9613 25.3046C80.6008 25.8871 80.018 26.0536 79.5186 25.7762C79.0469 25.4988 78.8527 24.916 79.2135 24.3058C79.5463 23.6953 80.1568 23.5567 80.6285 23.8341ZM83.5696 29.9381C84.6518 30.7705 85.7614 30.6594 86.5662 29.5775L88.0643 27.6354L86.8713 26.7198L85.4286 28.6619C85.0123 29.189 84.6518 29.2447 84.3187 28.9947C83.9579 28.7173 83.9302 28.3565 84.3187 27.8294L85.7891 25.915L84.5961 24.9994L83.0979 26.9415C82.2932 27.996 82.4597 29.1058 83.5696 29.9381ZM88.3417 34.1831L89.4239 35.293L91.2551 30.7983L90.2287 29.7161L85.6783 31.4365L86.7327 32.5464L87.5095 32.2135L88.6748 33.4343L88.3417 34.1831ZM88.5637 31.7693L89.6736 31.27L89.1742 32.3798L88.5637 31.7693ZM89.8122 35.8481L91.8654 38.7058L92.8087 38.0121L91.6434 36.3752L94.3071 34.4608L93.4192 33.24L89.8122 35.8481ZM92.2262 39.3717L93.031 40.6479L96.832 38.2895L96.0275 37.0134L92.2262 39.3717ZM94.0852 42.4237L94.7234 43.7833L97.6922 42.3406L98.2747 43.5336L99.3292 43.0065L97.5257 39.3163L96.4712 39.8157L97.026 40.981L94.0852 42.4237ZM101.188 48.1392L100.716 46.7519L98.9404 46.419L100.078 45.0318L99.5509 43.5336L97.47 46.0585L95.9162 46.6133L96.4155 48.0283L97.9414 47.5012L101.188 48.1392Z" fill="#1774D3"/>
<path d="M21.9739 74.0812C22.2791 74.3863 22.6676 74.4974 23.0838 74.3586C23.722 74.1643 23.9994 73.4429 23.6386 72.2776L22.8896 70.0024L18.6445 71.3897L19.4213 73.7758C19.8098 74.9411 20.4201 75.4405 21.1692 75.1908C21.6688 75.0245 21.9462 74.6362 21.9739 74.0812ZM22.5565 72.4165C22.6673 72.7216 22.6119 72.9159 22.3899 72.9713C22.1957 73.0544 22.0291 72.9435 21.946 72.6105L21.724 71.9445L22.3345 71.7503L22.5565 72.4165ZM20.3924 73.3321L20.0873 72.4719L20.7809 72.2499L21.0583 73.1101C21.1415 73.4429 21.086 73.6372 20.8641 73.6926C20.6421 73.776 20.4755 73.6649 20.3924 73.3321ZM22.3068 77.9379L22.8339 77.6605L23.6941 79.3529L24.6651 78.8812L23.8049 77.1888L24.2766 76.9669L25.2477 78.8812L26.2464 78.3819L24.6372 75.1356L20.6418 77.1057L22.3065 80.4351L23.3053 79.9357L22.3068 77.9379ZM23.9715 83.3205C24.7205 84.4859 25.6916 84.6801 26.3853 84.2362C27.7448 83.3205 26.0244 81.517 26.4684 81.2119C26.5795 81.1287 26.7735 81.1842 27.0232 81.5447C27.2175 81.8776 27.3561 82.2938 27.4117 82.7655L28.5771 82.5435C28.5493 82.0164 28.2996 81.4336 27.9945 80.9342C27.2177 79.7689 26.2744 79.5747 25.5807 80.0186C24.1934 80.9342 25.9415 82.7377 25.4696 83.0429C25.3308 83.1537 25.1645 83.0706 24.9425 82.71C24.6651 82.2938 24.4986 81.739 24.4709 81.2396L23.2778 81.4339C23.3058 81.961 23.5555 82.71 23.9715 83.3205ZM26.7461 86.9273L27.7171 88.0926L30.2143 85.9563L31.0745 86.955L31.9624 86.206L29.2989 83.0429L28.411 83.7919L29.2435 84.7907L26.7461 86.9273ZM35.4306 89.4799L33.7936 88.0926L30.9082 91.5054L32.0735 92.4765L32.7671 91.6443L33.2665 92.0605C34.2099 92.8653 35.2364 92.8653 35.9023 92.0882C36.568 91.3112 36.4017 90.2847 35.4306 89.4799ZM33.9322 91.1169L33.516 90.7561L34.2096 89.9514L34.6259 90.3122C34.931 90.5896 34.9587 90.867 34.7367 91.1167C34.5427 91.3666 34.265 91.3666 33.9322 91.1169ZM37.789 96.583L39.1485 97.4431L39.0654 95.7784C39.6759 95.8062 40.203 95.5842 40.5358 95.0294C41.0906 94.1415 40.7578 93.1704 39.7034 92.5045L37.8721 91.3669L35.5138 95.168L36.7902 95.9724L37.3727 95.0014L37.7335 95.2234L37.789 96.583ZM39.2594 94.2243C39.0651 94.5018 38.7877 94.5572 38.4546 94.3355L37.983 94.0581L38.5378 93.1702L39.0095 93.4476C39.3425 93.6695 39.4259 93.9469 39.2594 94.2243ZM42.5888 99.2187C43.9207 99.8013 45.308 99.3296 45.8351 98.0811C46.3899 96.8327 45.8073 95.5285 44.4755 94.946C43.1436 94.3634 41.7563 94.8348 41.2292 96.0558C40.6744 97.3043 41.2569 98.6359 42.5888 99.2187ZM43.0882 98.1088C42.5888 97.8868 42.3391 97.3041 42.6165 96.6661C42.8939 96.0279 43.4767 95.8336 43.9761 96.0556C44.5032 96.2776 44.7252 96.8324 44.4478 97.4706C44.1704 98.1088 43.5876 98.3308 43.0882 98.1088ZM46.5287 100.689L48.6374 101.272C50.0801 101.66 51.3008 101.105 51.6616 99.7735C52.0222 98.4139 51.2454 97.3318 49.8027 96.9435L47.694 96.361L46.5287 100.689ZM48.2768 99.9401L48.8316 97.8868L49.4421 98.0534C50.0526 98.2199 50.3577 98.7193 50.1912 99.3575C50.0246 100.023 49.4975 100.273 48.887 100.107L48.2768 99.9401ZM54.8247 102.576C56.1843 102.715 57.0722 102.049 57.2108 100.717L57.4882 98.2754L56.0178 98.1088L55.7681 100.495C55.6849 101.189 55.3796 101.41 54.9636 101.355C54.5473 101.327 54.3254 101.022 54.4087 100.356L54.6584 97.9425L53.188 97.776L52.9106 100.217C52.7438 101.549 53.4652 102.409 54.8247 102.576ZM61.0673 102.881C61.9275 102.881 62.6211 102.548 63.0651 101.966L62.094 101.133C61.8443 101.466 61.5115 101.66 61.123 101.66C60.4848 101.688 60.0685 101.244 60.0685 100.578C60.0408 99.8846 60.457 99.4407 61.095 99.4407C61.4835 99.4407 61.8164 99.6349 62.0661 99.9401L63.0094 99.0799C62.5655 98.5251 61.8718 98.2197 61.0116 98.2197C59.5689 98.2474 58.5144 99.2185 58.5422 100.578C58.5704 101.966 59.6246 102.909 61.0673 102.881ZM65.5343 102.437L67.0047 102.243L66.5608 98.969L67.8649 98.8025L67.6984 97.6371L63.6199 98.192L63.7587 99.3573L65.0629 99.1907L65.5343 102.437ZM75.1899 97.8314L73.9969 97.8591C74.0246 98.0811 74.0246 98.2754 73.9969 98.4696L73.4421 98.2199C73.8306 97.8037 73.9692 97.3875 73.8306 96.9438C73.6086 96.3055 72.915 96.0559 72.0825 96.3333C71.1391 96.6384 70.6952 97.3043 70.9172 97.9703C71.0003 98.2477 71.1946 98.4973 71.5554 98.6639C71.0837 99.1633 70.9449 99.6349 71.1114 100.162C71.3334 100.883 72.2767 101.161 73.2755 100.828C73.8303 100.661 74.2466 100.356 74.5797 99.9678L75.1622 100.19L75.6061 99.1356L75.1068 98.9136C75.1899 98.5805 75.2176 98.2199 75.1899 97.8314ZM72.3599 97.2209C72.5264 97.1655 72.6373 97.2209 72.6927 97.3597C72.7204 97.4706 72.6927 97.6094 72.4708 97.8314C72.2488 97.7203 72.1933 97.6649 72.1656 97.554C72.11 97.4152 72.1656 97.2763 72.3599 97.2209ZM73.0535 99.7735C72.7207 99.8844 72.471 99.7735 72.4153 99.5793C72.3599 99.4127 72.3876 99.2741 72.5264 99.1076L73.4975 99.5238C73.3864 99.6349 73.2198 99.7181 73.0535 99.7735ZM82.9032 96.0836C82.82 96.3333 82.6812 96.5275 82.4869 96.6384C82.3483 96.7215 82.2372 96.7215 82.043 96.6661C82.6255 95.9447 82.7366 94.9737 82.265 94.1135C81.599 92.9205 80.184 92.5874 78.9078 93.3087C77.6594 94.0024 77.1877 95.3897 77.8534 96.5827C78.4082 97.5815 79.5181 97.97 80.628 97.6369C81.7378 97.9697 82.2927 97.942 82.9863 97.5537C83.458 97.3041 83.7354 96.9155 83.8465 96.4439L82.9032 96.0836ZM79.5181 94.3632C79.9898 94.0858 80.6003 94.2521 80.9331 94.8626C81.2659 95.4731 81.0996 96.0556 80.6002 96.3053C80.1286 96.5827 79.5181 96.4441 79.1852 95.8336C78.8522 95.2234 79.0187 94.6406 79.5181 94.3632ZM86.4545 93.8638C87.5367 93.0313 87.703 91.9217 86.8985 90.8672L85.4003 88.8974L84.235 89.813L85.7055 91.7274C86.1217 92.2545 86.0663 92.6153 85.7332 92.865C85.4003 93.1424 85.0395 93.087 84.6233 92.5599L83.1529 90.6455L81.9598 91.5611L83.4303 93.5033C84.2627 94.5575 85.3724 94.6963 86.4545 93.8638ZM91.6706 88.8697L92.7528 87.7598L88.2024 86.0397L87.1482 87.0939L88.9794 91.6163L90.0616 90.5064L89.7008 89.7573L90.8938 88.5366L91.6706 88.8697ZM89.2291 88.7032L88.7297 87.621L89.8396 88.0926L89.2291 88.7032ZM93.5573 86.7053L95.6382 83.8476L94.6949 83.1817L93.5019 84.791L90.8384 82.8489L89.9505 84.0696L93.5573 86.7053ZM96.4707 82.5435L97.2198 81.2393L93.391 78.9641L92.6142 80.2683L96.4707 82.5435ZM98.5239 78.7701L99.1621 77.4105L96.1656 76.0233L96.7204 74.8302L95.6659 74.3308L93.9181 78.0765L94.9726 78.5482L95.5274 77.3828L98.5239 78.7701ZM97.3029 69.4756L96.859 70.8629L98.0243 72.1947L96.2765 72.5832L95.8048 74.1094L98.9956 73.388L100.577 73.8874L101.021 72.4447L99.495 71.9453L97.3029 69.4756Z" fill="#1774D3"/>
<path fill-rule="evenodd" clip-rule="evenodd" d="M20.06 56.879L20.7814 59.1542H23.1675C23.2506 59.1542 23.3063 59.2097 23.3063 59.2654C23.334 59.3208 23.3063 59.4042 23.2509 59.4319L21.3365 60.8192L22.0578 63.0944C22.0856 63.1498 22.0578 63.2332 22.0024 63.2609C21.9747 63.3164 21.8913 63.3164 21.8359 63.2609L19.8938 61.8736L17.9794 63.2609C17.9239 63.3164 17.8405 63.3164 17.8128 63.2609C17.7574 63.2332 17.7297 63.1498 17.7574 63.0944L18.4787 60.8192L16.5644 59.4319C16.5089 59.4042 16.4812 59.321 16.5089 59.2654C16.5089 59.2099 16.5644 59.1542 16.6477 59.1542H19.0338L19.7552 56.879C19.7829 56.8236 19.8383 56.7959 19.894 56.7959C19.9766 56.7957 20.0323 56.8234 20.06 56.879Z" fill="#1774D3"/>
<path fill-rule="evenodd" clip-rule="evenodd" d="M100.246 56.879L100.967 59.1542H103.353C103.436 59.1542 103.492 59.2097 103.52 59.2654C103.52 59.3208 103.52 59.4042 103.464 59.4319L101.522 60.8192L102.271 63.0944C102.271 63.1498 102.271 63.2332 102.216 63.2609C102.16 63.3164 102.077 63.3164 102.021 63.2609L100.107 61.8736L98.1649 63.2609C98.1095 63.3164 98.0538 63.3164 97.9984 63.2609C97.9429 63.2332 97.9152 63.1498 97.9429 63.0944L98.6643 60.8192L96.7499 59.4319C96.6945 59.4042 96.6667 59.321 96.6945 59.2654C96.6945 59.2099 96.7776 59.1542 96.8333 59.1542H99.2194L99.9407 56.879C99.9684 56.8236 100.024 56.7959 100.107 56.7959C100.162 56.7957 100.218 56.8234 100.246 56.879Z" fill="#1774D3"/>
</svg>
