<svg width="64" height="64" viewBox="0 0 64 64" fill="none" xmlns="http://www.w3.org/2000/svg">
<path d="M56.6206 13.44C56.6175 13.2365 56.5528 13.0386 56.435 12.8726C56.3171 12.7066 56.1518 12.5801 55.9606 12.51L32.3406 4.06002C32.121 3.97999 31.8802 3.97999 31.6606 4.06002L8.04063 12.51C7.8495 12.5801 7.68412 12.7066 7.56629 12.8726C7.44847 13.0386 7.38373 13.2365 7.38063 13.44L7.14062 35.19C7.16062 48.9 19.7706 56.57 32.0006 60C44.2306 56.56 56.8406 48.9 56.8606 35.18L56.6206 13.44ZM47.8806 46.98C43.3744 51.1532 37.9265 54.1757 32.0006 55.79C26.0748 54.1757 20.6268 51.1532 16.1206 46.98C14.5332 45.4478 13.2734 43.6092 12.4174 41.5758C11.5613 39.5423 11.127 37.3563 11.1406 35.15L11.3506 16.23C11.3518 16.026 11.4157 15.8272 11.5338 15.6608C11.6519 15.4944 11.8184 15.3684 12.0106 15.3L31.6606 8.27002C31.8803 8.19006 32.1211 8.19006 32.3407 8.27002L51.9906 15.3C52.1829 15.3684 52.3493 15.4944 52.4674 15.6608C52.5855 15.8272 52.6495 16.026 52.6506 16.23L52.8606 35.18C52.8732 37.3817 52.4382 39.5629 51.5821 41.5913C50.7261 43.6197 49.4668 45.4531 47.8806 46.98Z" fill="#2176FF"/>
<path d="M31.999 10.2695L13.339 16.9395L13.139 35.1595C13.1252 37.0918 13.5045 39.0067 14.2541 40.7877C15.0036 42.5687 16.1077 44.1787 17.499 45.5195C21.6411 49.3333 26.6011 52.1484 31.999 53.7495C40.839 50.7395 50.859 45.3695 50.859 35.1895L50.659 16.9395L31.999 10.2695ZM44.709 26.6095L29.249 42.0595C29.1564 42.1541 29.046 42.2292 28.9241 42.2807C28.8022 42.3322 28.6714 42.359 28.539 42.3595C28.4082 42.359 28.2788 42.3321 28.1586 42.2806C28.0383 42.2291 27.9297 42.1539 27.839 42.0595L19.289 33.5195C19.1963 33.427 19.1228 33.3171 19.0726 33.1962C19.0224 33.0752 18.9966 32.9455 18.9966 32.8145C18.9966 32.6836 19.0224 32.5539 19.0726 32.4329C19.1228 32.3119 19.1963 32.202 19.289 32.1095L22.549 28.8495C22.7378 28.6622 22.993 28.557 23.259 28.557C23.525 28.557 23.7802 28.6622 23.969 28.8495L28.539 33.4295L40.029 21.9395C40.1213 21.8446 40.2317 21.7691 40.3536 21.7176C40.4756 21.6661 40.6066 21.6395 40.739 21.6395C40.8714 21.6395 41.0025 21.6661 41.1244 21.7176C41.2464 21.7691 41.3568 21.8446 41.449 21.9395L44.709 25.1895C44.8964 25.3783 45.0015 25.6335 45.0015 25.8995C45.0015 26.1655 44.8964 26.4207 44.709 26.6095Z" fill="#2176FF"/>
<path d="M29.2502 35.5496C29.1577 35.6423 29.0478 35.7159 28.9268 35.7661C28.8058 35.8163 28.6761 35.8421 28.5452 35.8421C28.4142 35.8421 28.2845 35.8163 28.1635 35.7661C28.0425 35.7159 27.9327 35.6423 27.8402 35.5496L23.2602 30.9696L21.4102 32.8096L28.5402 39.9396L42.5902 25.8996L40.7402 24.0596L29.2502 35.5496Z" fill="#2176FF"/>
</svg>
