<svg width="40" height="40" viewBox="0 0 40 40" fill="none" xmlns="http://www.w3.org/2000/svg">
<path d="M19.9987 10.2083C21.6095 10.2083 22.9154 8.9025 22.9154 7.29167C22.9154 5.68084 21.6095 4.375 19.9987 4.375C18.3879 4.375 17.082 5.68084 17.082 7.29167C17.082 8.9025 18.3879 10.2083 19.9987 10.2083Z" fill="white"/>
<path d="M34.9987 15.2083C36.6095 15.2083 37.9154 13.9025 37.9154 12.2917C37.9154 10.6808 36.6095 9.375 34.9987 9.375C33.3879 9.375 32.082 10.6808 32.082 12.2917C32.082 13.9025 33.3879 15.2083 34.9987 15.2083Z" fill="white"/>
<path d="M4.9987 15.2083C6.60953 15.2083 7.91536 13.9025 7.91536 12.2917C7.91536 10.6808 6.60953 9.375 4.9987 9.375C3.38787 9.375 2.08203 10.6808 2.08203 12.2917C2.08203 13.9025 3.38787 15.2083 4.9987 15.2083Z" fill="white"/>
<path fill-rule="evenodd" clip-rule="evenodd" d="M35.39 14.203C35.4967 13.673 35.25 13.1363 34.7817 12.8697C34.3117 12.6047 33.7233 12.6697 33.3233 13.033C33.3233 13.033 31.58 14.618 29.6133 16.4063C28.6933 17.243 27.4183 17.568 26.21 17.2763C25.0017 16.9847 24.0167 16.113 23.58 14.948L21.1683 8.51967C20.985 8.03134 20.52 7.70801 19.9983 7.70801C19.4767 7.70801 19.0117 8.03134 18.8283 8.51967L16.4167 14.948C15.98 16.113 14.995 16.9847 13.7867 17.2763C12.5783 17.568 11.3033 17.243 10.3833 16.4063C8.41666 14.618 6.67332 13.033 6.67332 13.033C6.27332 12.6697 5.68499 12.6047 5.21499 12.8697C4.74666 13.1363 4.49999 13.673 4.60666 14.203C4.60666 14.203 6.46166 23.478 7.40332 28.1897C7.83166 30.333 9.71332 31.8747 11.8983 31.8747C16.0583 31.8747 23.9383 31.8747 28.0983 31.8747C30.2833 31.8747 32.165 30.333 32.5933 28.1897C33.535 23.478 35.39 14.203 35.39 14.203ZM29.9983 34.3747H9.99832C9.30832 34.3747 8.74832 34.9347 8.74832 35.6247C8.74832 36.3147 9.30832 36.8747 9.99832 36.8747H29.9983C30.6883 36.8747 31.2483 36.3147 31.2483 35.6247C31.2483 34.9347 30.6883 34.3747 29.9983 34.3747Z" fill="white"/>
</svg>
