<svg width="24" height="25" viewBox="0 0 24 25" fill="none" xmlns="http://www.w3.org/2000/svg">
<path fill-rule="evenodd" clip-rule="evenodd" d="M23.5527 9.23906L15.8935 8.0703L12.4695 0.781012C12.372 0.606908 12.1941 0.5 12.0018 0.5C11.8095 0.5 11.6316 0.606908 11.5341 0.781012L8.10852 8.06866L0.447194 9.23906C0.250668 9.26886 0.0872825 9.41324 0.0257218 9.61151C-0.035839 9.80978 0.0150991 10.0276 0.157123 10.1733L5.70083 15.8478L4.39237 23.8598C4.35898 24.0652 4.43941 24.2728 4.59989 24.3953C4.76037 24.5178 4.97313 24.5341 5.14886 24.4374L12 20.6549L18.8511 24.4357C19.0268 24.5325 19.2396 24.5162 19.4 24.3936C19.5605 24.2711 19.641 24.0636 19.6076 23.8582L18.2991 15.8478L23.8428 10.1733C23.9848 10.0276 24.0358 9.80995 23.9744 9.61171C23.9129 9.41348 23.7497 9.26903 23.5533 9.23906H23.5527Z" fill="#2176FF"/>
</svg>
