<svg width="20" height="21" viewBox="0 0 20 21" fill="none" xmlns="http://www.w3.org/2000/svg">
<g clip-path="url(#clip0_64749_429)">
<path d="M14.7428 9.76961C14.6566 9.72832 14.5691 9.68858 14.4805 9.65053C14.3261 6.80606 12.7718 5.1776 10.162 5.16094C10.1502 5.16086 10.1385 5.16086 10.1266 5.16086C8.56564 5.16086 7.26738 5.82718 6.46831 7.03966L7.90362 8.02425C8.50056 7.11857 9.43739 6.9255 10.1273 6.9255C10.1353 6.9255 10.1433 6.9255 10.1512 6.92557C11.0105 6.93105 11.6589 7.1809 12.0786 7.66813C12.384 8.02284 12.5883 8.51302 12.6895 9.13165C11.9276 9.00216 11.1036 8.96234 10.2228 9.01284C7.7415 9.15577 6.14634 10.6029 6.25347 12.6137C6.30784 13.6337 6.81598 14.5112 7.68424 15.0845C8.41835 15.5691 9.36383 15.806 10.3465 15.7524C11.6441 15.6812 12.6622 15.1861 13.3724 14.2808C13.9117 13.5933 14.2529 12.7024 14.4035 11.5798C15.022 11.953 15.4803 12.4442 15.7334 13.0346C16.1638 14.0382 16.1889 15.6875 14.8432 17.0321C13.6641 18.21 12.2468 18.7196 10.1049 18.7353C7.72895 18.7177 5.93204 17.9557 4.76373 16.4705C3.66971 15.0798 3.10432 13.071 3.08322 10.5C3.10432 7.92894 3.66971 5.92017 4.76373 4.52945C5.93204 3.04426 7.72892 2.28229 10.1049 2.26464C12.4981 2.28243 14.3263 3.04806 15.5393 4.54042C16.1341 5.27225 16.5826 6.19258 16.8782 7.26566L18.5602 6.8169C18.2018 5.49606 17.638 4.35789 16.8707 3.41396C15.3156 1.5007 13.0412 0.520328 10.1108 0.5H10.099C7.17452 0.520257 4.92561 1.50435 3.4148 3.42493C2.07038 5.134 1.37689 7.51205 1.35359 10.493L1.35352 10.5L1.35359 10.507C1.37689 13.4879 2.07038 15.866 3.4148 17.5751C4.92561 19.4956 7.17452 20.4798 10.099 20.5H10.1108C12.7108 20.482 14.5435 19.8013 16.0533 18.2928C18.0286 16.3194 17.9691 13.8457 17.3181 12.3272C16.851 11.2382 15.9605 10.3538 14.7428 9.76961ZM10.2536 13.9903C9.16607 14.0516 8.03627 13.5634 7.98056 12.5179C7.93927 11.7427 8.53224 10.8777 10.3203 10.7747C10.5251 10.7629 10.726 10.7571 10.9234 10.7571C11.5729 10.7571 12.1805 10.8202 12.7329 10.9409C12.5268 13.5141 11.3183 13.9319 10.2536 13.9903Z" fill="white"/>
</g>
<defs>
<clipPath id="clip0_64749_429">
<rect width="20" height="20" fill="white" transform="translate(0 0.5)"/>
</clipPath>
</defs>
</svg>
